Bodoni-36-Bold.ufo
<glyph name="numbersign" format="2">
  <advance width="2587"/>
  <unicode hex="0023"/>
  <outline>
    <contour>
      <point x="122.5" y="1036" type="line"/>
      <point x="2342" y="1036" type="line"/>
      <point x="2342" y="1010.5" type="line"/>
      <point x="122.5" y="1010.5" type="line"/>
    </contour>
    <contour>
      <point x="246" y="2123.5" type="line"/>
      <point x="2466" y="2123.5" type="line"/>
      <point x="2466" y="2098" type="line"/>
      <point x="246" y="2098" type="line"/>
    </contour>
    <contour>
      <point x="1854.5" y="3088" type="line"/>
      <point x="1879" y="3092" type="line"/>
      <point x="1470" y="-20" type="line"/>
      <point x="1445" y="-24.5" type="line"/>
    </contour>
    <contour>
      <point x="1079" y="3092" type="line"/>
      <point x="1104" y="3092" type="line"/>
      <point x="694" y="-20" type="line"/>
      <point x="669" y="-20" type="line"/>
    </contour>
  </outline>
</glyph>
<glyph name="dollar" format="2">
  <advance width="4760"/>
  <unicode hex="0024"/>
  <outline>
    <contour>
      <point x="2560" y="6640" type="line"/>
      <point x="2608" y="6640" type="line"/>
      <point x="2608" y="-640" type="line"/>
      <point x="2560" y="-640" type="line"/>
    </contour>
    <contour>
      <point x="1928" y="6640" type="line"/>
      <point x="1984" y="6640" type="line"/>
      <point x="1984" y="-640" type="line"/>
      <point x="1928" y="-640" type="line"/>
    </contour>
    <contour>
      <point x="4096" y="5040" type="curve"/>
      <point x="3968" y="5600"/>
      <point x="3264" y="6016"/>
      <point x="2480" y="6016" type="curve" smooth="yes"/>
      <point x="1792" y="6016"/>
      <point x="1280" y="5616"/>
      <point x="1280" y="5032" type="curve" smooth="yes"/>
      <point x="1280" y="3608"/>
      <point x="4440" y="4040"/>
      <point x="4440" y="1760" type="curve" smooth="yes"/>
      <point x="4440" y="640"/>
      <point x="3616" y="-120"/>
      <point x="2368" y="-120" type="curve" smooth="yes"/>
      <point x="888" y="-120"/>
      <point x="224" y="640"/>
      <point x="224" y="1240" type="curve" smooth="yes"/>
      <point x="224" y="1688"/>
      <point x="488" y="2016"/>
      <point x="920" y="2016" type="curve" smooth="yes"/>
      <point x="1240" y="2016"/>
      <point x="1552" y="1760"/>
      <point x="1552" y="1328" type="curve" smooth="yes"/>
      <point x="1552" y="928"/>
      <point x="1192" y="728"/>
      <point x="880" y="728" type="curve" smooth="yes"/>
      <point x="616" y="728"/>
      <point x="392" y="880"/>
      <point x="304" y="1072" type="curve"/>
      <point x="416" y="584"/>
      <point x="1024" y="-64"/>
      <point x="2320" y="-64" type="curve" smooth="yes"/>
      <point x="3168" y="-64"/>
      <point x="3600" y="424"/>
      <point x="3600" y="1128" type="curve" smooth="yes"/>
      <point x="3600" y="2712"/>
      <point x="440" y="2120"/>
      <point x="440" y="4440" type="curve" smooth="yes"/>
      <point x="440" y="5440"/>
      <point x="1440" y="6080"/>
      <point x="2408" y="6080" type="curve" smooth="yes"/>
      <point x="3344" y="6080"/>
      <point x="4200" y="5568"/>
      <point x="4200" y="4840" type="curve" smooth="yes"/>
      <point x="4200" y="4392"/>
      <point x="3952" y="4104"/>
      <point x="3520" y="4104" type="curve" smooth="yes"/>
      <point x="3200" y="4104"/>
      <point x="2888" y="4320"/>
      <point x="2888" y="4736" type="curve" smooth="yes"/>
      <point x="2888" y="5120"/>
      <point x="3208" y="5352"/>
      <point x="3520" y="5352" type="curve" smooth="yes"/>
      <point x="3768" y="5352"/>
      <point x="3984" y="5232"/>
    </contour>
  </outline>
</glyph>
<glyph name="ampersand" format="2">
  <advance width="861"/>
  <unicode hex="0026"/>
  <outline>
    <contour>
      <point x="584" y="460" type="line"/>
      <point x="824" y="460" type="line"/>
      <point x="824" y="454" type="line"/>
      <point x="584" y="454" type="line"/>
    </contour>
    <contour>
      <point x="722" y="458" type="line"/>
      <point x="700" y="235"/>
      <point x="552" y="-10"/>
      <point x="284" y="-10" type="curve" smooth="yes"/>
      <point x="126" y="-10"/>
      <point x="40" y="67"/>
      <point x="40" y="180" type="curve" smooth="yes"/>
      <point x="40" y="336"/>
      <point x="243" y="376"/>
      <point x="336" y="432" type="curve" smooth="yes"/>
      <point x="412" y="481"/>
      <point x="466" y="485"/>
      <point x="466" y="635" type="curve" smooth="yes"/>
      <point x="466" y="692"/>
      <point x="452" y="755"/>
      <point x="396" y="755" type="curve" smooth="yes"/>
      <point x="342" y="755"/>
      <point x="321" y="703"/>
      <point x="321" y="655" type="curve" smooth="yes"/>
      <point x="321" y="615"/>
      <point x="351" y="554"/>
      <point x="394" y="490" type="curve" smooth="yes"/>
      <point x="710" y="6" type="line"/>
      <point x="834" y="6" type="line"/>
      <point x="834" y="0" type="line"/>
      <point x="540" y="0" type="line"/>
      <point x="209" y="490" type="line" smooth="yes"/>
      <point x="183" y="528"/>
      <point x="163" y="578"/>
      <point x="163" y="613" type="curve" smooth="yes"/>
      <point x="163" y="703"/>
      <point x="258" y="760"/>
      <point x="399" y="760" type="curve" smooth="yes"/>
      <point x="531" y="760"/>
      <point x="615" y="711"/>
      <point x="615" y="635" type="curve" smooth="yes"/>
      <point x="615" y="514"/>
      <point x="470" y="514"/>
      <point x="334" y="426" type="curve" smooth="yes"/>
      <point x="260" y="381"/>
      <point x="206" y="365"/>
      <point x="206" y="231" type="curve" smooth="yes"/>
      <point x="206" y="120"/>
      <point x="276" y="22"/>
      <point x="370" y="22" type="curve" smooth="yes"/>
      <point x="542" y="22"/>
      <point x="696" y="236"/>
      <point x="716" y="458" type="curve"/>
    </contour>
  </outline>
</glyph>
<glyph name="parenleft" format="2">
  <advance width="1524"/>
  <unicode hex="0028"/>
  <outline>
    <contour>
      <point x="1457.5" y="-678" type="curve"/>
      <point x="1445.5" y="-696" type="line"/>
      <point x="777.5" y="-409.5"/>
      <point x="266" y="377.5"/>
      <point x="266" y="1331.5" type="curve" smooth="yes"/>
      <point x="266" y="2285.5"/>
      <point x="777.5" y="2990"/>
      <point x="1445.5" y="3276.5" type="curve"/>
      <point x="1457.5" y="3258" type="line"/>
      <point x="1051.5" y="2992"/>
      <point x="900.5" y="2117.5"/>
      <point x="900.5" y="1331.5" type="curve" smooth="yes"/>
      <point x="900.5" y="545.5"/>
      <point x="1051.5" y="-412"/>
    </contour>
  </outline>
</glyph>
<glyph name="comma" format="2">
  <advance width="1126"/>
  <unicode hex="002C"/>
  <outline>
    <contour>
      <point x="164" y="324" type="curve" smooth="yes"/>
      <point x="164" y="520"/>
      <point x="344" y="688"/>
      <point x="561" y="688" type="curve" smooth="yes"/>
      <point x="782" y="688"/>
      <point x="970" y="499"/>
      <point x="970" y="139" type="curve" smooth="yes"/>
      <point x="970" y="-271"/>
      <point x="648" y="-624"/>
      <point x="156" y="-624" type="curve"/>
      <point x="156" y="-600" type="line"/>
      <point x="627" y="-600"/>
      <point x="1022" y="-248"/>
      <point x="924" y="317" type="curve"/>
      <point x="894" y="133"/>
      <point x="743" y="-40"/>
      <point x="531" y="-40" type="curve" smooth="yes"/>
      <point x="302" y="-40"/>
      <point x="164" y="128"/>
    </contour>
  </outline>
</glyph>
<glyph name="zero" format="2">
  <advance width="660"/>
  <unicode hex="0030"/>
  <outline>
    <contour>
      <point x="330" y="-10" type="curve" smooth="yes"/>
      <point x="157" y="-10"/>
      <point x="40" y="157"/>
      <point x="40" y="375" type="curve" smooth="yes"/>
      <point x="40" y="593"/>
      <point x="167" y="760"/>
      <point x="330" y="760" type="curve" smooth="yes"/>
      <point x="493" y="760"/>
      <point x="620" y="593"/>
      <point x="620" y="375" type="curve" smooth="yes"/>
      <point x="620" y="157"/>
      <point x="503" y="-10"/>
    </contour>
    <contour>
      <point x="330" y="755" type="curve" smooth="yes"/>
      <point x="236" y="755"/>
      <point x="215" y="582"/>
      <point x="215" y="375" type="curve" smooth="yes"/>
      <point x="215" y="168"/>
      <point x="226" y="-5"/>
      <point x="330" y="-5" type="curve" smooth="yes"/>
      <point x="434" y="-5"/>
      <point x="445" y="168"/>
      <point x="445" y="375" type="curve" smooth="yes"/>
      <point x="445" y="582"/>
      <point x="429" y="755"/>
    </contour>
  </outline>
</glyph>
<glyph name="one" format="2">
  <advance width="2026"/>
  <unicode hex="0031"/>
  <outline>
    <contour>
      <point x="205" y="25" type="line"/>
      <point x="1822.5" y="25" type="line"/>
      <point x="1822.5" y="0" type="line"/>
      <point x="205" y="0" type="line"/>
    </contour>
    <contour>
      <point x="274" y="3072" type="line"/>
      <point x="1372" y="3072" type="line"/>
      <point x="1372" y="10.5" type="line"/>
      <point x="737" y="10.5" type="line"/>
      <point x="737" y="3047" type="line"/>
      <point x="274" y="3047" type="line"/>
    </contour>
  </outline>
</glyph>
<glyph name="two" format="2">
  <advance width="600"/>
  <unicode hex="0032"/>
  <outline>
    <contour>
      <point x="565" y="0" type="line"/>
      <point x="40" y="0" type="line"/>
      <point x="40" y="100" type="line"/>
      <point x="252" y="272" type="line" smooth="yes"/>
      <point x="339" y="343"/>
      <point x="384" y="421"/>
      <point x="384" y="530" type="curve" smooth="yes"/>
      <point x="384" y="654"/>
      <point x="334" y="738"/>
      <point x="241" y="738" type="curve" smooth="yes"/>
      <point x="139" y="738"/>
      <point x="56" y="654"/>
      <point x="58" y="547" type="curve"/>
      <point x="70" y="583"/>
      <point x="101" y="612"/>
      <point x="145" y="612" type="curve" smooth="yes"/>
      <point x="198" y="612"/>
      <point x="238" y="576"/>
      <point x="238" y="526" type="curve" smooth="yes"/>
      <point x="238" y="471"/>
      <point x="190" y="434"/>
      <point x="140" y="434" type="curve" smooth="yes"/>
      <point x="90" y="434"/>
      <point x="50" y="472"/>
      <point x="50" y="549" type="curve" smooth="yes"/>
      <point x="50" y="666"/>
      <point x="143" y="760"/>
      <point x="300" y="760" type="curve" smooth="yes"/>
      <point x="456" y="760"/>
      <point x="544" y="675"/>
      <point x="544" y="570" type="curve" smooth="yes"/>
      <point x="544" y="455"/>
      <point x="432" y="400"/>
      <point x="358" y="344" type="curve" smooth="yes"/>
      <point x="124" y="150" type="line"/>
      <point x="559" y="150" type="line"/>
      <point x="559" y="225" type="line"/>
      <point x="565" y="225" type="line"/>
    </contour>
  </outline>
</glyph>
<glyph name="three" format="2">
  <advance width="2338"/>
  <unicode hex="0033"/>
  <outline>
    <contour>
      <point x="2175" y="840" type="curve" smooth="yes"/>
      <point x="2175" y="287"/>
      <point x="1667" y="-40"/>
      <point x="1048" y="-40" type="curve" smooth="yes"/>
      <point x="405" y="-40"/>
      <point x="102" y="324"/>
      <point x="102" y="660" type="curve" smooth="yes"/>
      <point x="102" y="889"/>
      <point x="257" y="1038"/>
      <point x="461" y="1038" type="curve" smooth="yes"/>
      <point x="645" y="1038"/>
      <point x="784" y="906"/>
      <point x="784" y="698" type="curve" smooth="yes"/>
      <point x="784" y="506"/>
      <point x="618" y="368"/>
      <point x="438" y="368" type="curve" smooth="yes"/>
      <point x="302" y="368"/>
      <point x="215" y="428"/>
      <point x="166" y="514" type="curve"/>
      <point x="217" y="272"/>
      <point x="483" y="6"/>
      <point x="958" y="6" type="curve" smooth="yes"/>
      <point x="1404" y="6"/>
      <point x="1515" y="394"/>
      <point x="1515" y="840" type="curve" smooth="yes"/>
      <point x="1515" y="1204"/>
      <point x="1401" y="1646"/>
      <point x="811" y="1646" type="curve"/>
      <point x="811" y="1668" type="line"/>
      <point x="1839" y="1668"/>
      <point x="2175" y="1312"/>
    </contour>
    <contour>
      <point x="811" y="1650" type="curve"/>
      <point x="811" y="1672" type="line"/>
      <point x="1359" y="1672"/>
      <point x="1393" y="2137"/>
      <point x="1393" y="2420" type="curve" smooth="yes"/>
      <point x="1393" y="2744"/>
      <point x="1282" y="3066"/>
      <point x="999" y="3066" type="curve" smooth="yes"/>
      <point x="705" y="3066"/>
      <point x="408" y="2888"/>
      <point x="326" y="2677" type="curve"/>
      <point x="388" y="2767"/>
      <point x="488" y="2802"/>
      <point x="582" y="2802" type="curve" smooth="yes"/>
      <point x="742" y="2802"/>
      <point x="897" y="2678"/>
      <point x="897" y="2484" type="curve" smooth="yes"/>
      <point x="897" y="2269"/>
      <point x="726" y="2142"/>
      <point x="562" y="2142" type="curve" smooth="yes"/>
      <point x="378" y="2142"/>
      <point x="226" y="2259"/>
      <point x="226" y="2478" type="curve" smooth="yes"/>
      <point x="226" y="2834"/>
      <point x="650" y="3108"/>
      <point x="1068" y="3108" type="curve" smooth="yes"/>
      <point x="1604" y="3108"/>
      <point x="2052" y="2850"/>
      <point x="2052" y="2400" type="curve" smooth="yes"/>
      <point x="2052" y="1990"/>
      <point x="1798" y="1650"/>
    </contour>
  </outline>
</glyph>
<glyph name="four" format="2">
  <advance width="2620"/>
  <unicode hex="0034"/>
  <outline>
    <contour>
      <point x="2437" y="25" type="line"/>
      <point x="2437" y="0" type="line"/>
      <point x="1105.5" y="0" type="line"/>
      <point x="1105.5" y="25" type="line"/>
      <point x="1495" y="25" type="line"/>
      <point x="1495" y="2791" type="line"/>
      <point x="190.5" y="893" type="line"/>
      <point x="2580.5" y="893" type="line"/>
      <point x="2580.5" y="867" type="line"/>
      <point x="142" y="867" type="line"/>
      <point x="1659" y="3072" type="line"/>
      <point x="2130" y="3072" type="line"/>
      <point x="2130" y="25" type="line"/>
    </contour>
  </outline>
</glyph>
<glyph name="five" format="2">
  <advance width="2191"/>
  <unicode hex="0035"/>
  <outline>
    <contour>
      <point x="1925" y="2458" type="line"/>
      <point x="258" y="2458" type="line"/>
      <point x="258" y="1462" type="line"/>
      <point x="233" y="1462" type="line"/>
      <point x="233" y="3072" type="line"/>
      <point x="1900" y="3072" type="line"/>
      <point x="1900" y="3298" type="line"/>
      <point x="1925" y="3298" type="line"/>
    </contour>
    <contour>
      <point x="127" y="393" type="curve"/>
      <point x="185" y="189"/>
      <point x="475" y="-4"/>
      <point x="799" y="-4" type="curve" smooth="yes"/>
      <point x="1245" y="-4"/>
      <point x="1392" y="445"/>
      <point x="1392" y="911" type="curve" smooth="yes"/>
      <point x="1392" y="1459"/>
      <point x="1241" y="1814"/>
      <point x="897" y="1814" type="curve" smooth="yes"/>
      <point x="594" y="1814"/>
      <point x="352" y="1634"/>
      <point x="270" y="1462" type="curve"/>
      <point x="246" y="1462" type="line"/>
      <point x="332" y="1655"/>
      <point x="598" y="1864"/>
      <point x="1032" y="1864" type="curve" smooth="yes"/>
      <point x="1650" y="1864"/>
      <point x="2068" y="1525"/>
      <point x="2068" y="911" type="curve" smooth="yes"/>
      <point x="2068" y="358"/>
      <point x="1564" y="-40"/>
      <point x="884" y="-40" type="curve" smooth="yes"/>
      <point x="446" y="-40"/>
      <point x="42" y="193"/>
      <point x="42" y="569" type="curve" smooth="yes"/>
      <point x="42" y="798"/>
      <point x="203" y="946"/>
      <point x="397" y="946" type="curve" smooth="yes"/>
      <point x="581" y="946"/>
      <point x="754" y="829"/>
      <point x="754" y="604" type="curve" smooth="yes"/>
      <point x="754" y="400"/>
      <point x="577" y="246"/>
      <point x="381" y="246" type="curve" smooth="yes"/>
      <point x="262" y="246"/>
      <point x="175" y="315"/>
    </contour>
  </outline>
</glyph>
<glyph name="six" format="2">
  <advance width="2497"/>
  <unicode hex="0036"/>
  <outline>
    <contour>
      <point x="1699.5" y="1024" type="curve" smooth="yes"/>
      <point x="1699.5" y="1675.5"/>
      <point x="1555" y="1951"/>
      <point x="1292.5" y="1951" type="curve" smooth="yes"/>
      <point x="987.5" y="1951"/>
      <point x="880.5" y="1679.5"/>
      <point x="880.5" y="1147" type="curve"/>
      <point x="859.5" y="1147" type="line"/>
      <point x="859.5" y="1678"/>
      <point x="940" y="2017.5"/>
      <point x="1417.5" y="2017.5" type="curve" smooth="yes"/>
      <point x="1872.5" y="2017.5"/>
      <point x="2375.5" y="1720"/>
      <point x="2375.5" y="1024" type="curve" smooth="yes"/>
      <point x="2375.5" y="410"/>
      <point x="1965.5" y="-41"/>
      <point x="1306.5" y="-41" type="curve" smooth="yes"/>
      <point x="647.5" y="-41"/>
      <point x="205" y="410"/>
      <point x="205" y="1270" type="curve" smooth="yes"/>
      <point x="205" y="2265"/>
      <point x="991.5" y="3113"/>
      <point x="2068.5" y="3113" type="curve"/>
      <point x="2068.5" y="3089.5" type="line"/>
      <point x="1335" y="3089.5"/>
      <point x="878.5" y="2263"/>
      <point x="878.5" y="1387" type="curve"/>
      <point x="880.5" y="1147" type="line"/>
      <point x="880.5" y="495.5"/>
      <point x="995.5" y="-15"/>
      <point x="1319" y="-15" type="curve" smooth="yes"/>
      <point x="1642.5" y="-15"/>
      <point x="1699.5" y="454.5"/>
    </contour>
  </outline>
</glyph>
<glyph name="seven" format="2">
  <advance width="2211"/>
  <unicode hex="0037"/>
  <outline>
    <contour>
      <point x="606" y="372" type="curve" smooth="yes"/>
      <point x="606" y="696"/>
      <point x="1002" y="1084"/>
      <point x="1276" y="1528" type="curve" smooth="yes"/>
      <point x="1417" y="1766"/>
      <point x="1586" y="2082"/>
      <point x="1779" y="2438" type="curve"/>
      <point x="188" y="2438" type="line"/>
      <point x="188" y="2130" type="line"/>
      <point x="164" y="2130" type="line"/>
      <point x="164" y="3072" type="line"/>
      <point x="2171" y="3072" type="line"/>
      <point x="2171" y="3072"/>
      <point x="1647" y="2084"/>
      <point x="1327" y="1546" type="curve" smooth="yes"/>
      <point x="1124" y="1198"/>
      <point x="1048" y="1109"/>
      <point x="1048" y="966" type="curve" smooth="yes"/>
      <point x="1048" y="708"/>
      <point x="1384" y="648"/>
      <point x="1384" y="340" type="curve" smooth="yes"/>
      <point x="1384" y="127"/>
      <point x="1241" y="-40"/>
      <point x="999" y="-40" type="curve" smooth="yes"/>
      <point x="778" y="-40"/>
      <point x="606" y="85"/>
    </contour>
  </outline>
</glyph>
<glyph name="eight" format="2">
  <advance width="600"/>
  <unicode hex="0038"/>
  <outline>
    <contour>
      <point x="220" y="560" type="curve" smooth="yes"/>
      <point x="220" y="451"/>
      <point x="241" y="392"/>
      <point x="300" y="392" type="curve" smooth="yes"/>
      <point x="359" y="392"/>
      <point x="380" y="451"/>
      <point x="380" y="560" type="curve" smooth="yes"/>
      <point x="380" y="664"/>
      <point x="359" y="747"/>
      <point x="300" y="747" type="curve" smooth="yes"/>
      <point x="241" y="747"/>
      <point x="220" y="664"/>
    </contour>
    <contour>
      <point x="60" y="560" type="curve" smooth="yes"/>
      <point x="60" y="670"/>
      <point x="144" y="760"/>
      <point x="300" y="760" type="curve" smooth="yes"/>
      <point x="456" y="760"/>
      <point x="540" y="670"/>
      <point x="540" y="560" type="curve" smooth="yes"/>
      <point x="540" y="450"/>
      <point x="456" y="382"/>
      <point x="300" y="382" type="curve" smooth="yes"/>
      <point x="144" y="382"/>
      <point x="60" y="450"/>
    </contour>
    <contour>
      <point x="200" y="190" type="curve" smooth="yes"/>
      <point x="200" y="86"/>
      <point x="226" y="3"/>
      <point x="300" y="3" type="curve" smooth="yes"/>
      <point x="374" y="3"/>
      <point x="400" y="86"/>
      <point x="400" y="190" type="curve" smooth="yes"/>
      <point x="400" y="294"/>
      <point x="374" y="378"/>
      <point x="300" y="378" type="curve" smooth="yes"/>
      <point x="226" y="378"/>
      <point x="200" y="294"/>
    </contour>
    <contour>
      <point x="40" y="190" type="curve" smooth="yes"/>
      <point x="40" y="310"/>
      <point x="124" y="388"/>
      <point x="300" y="388" type="curve" smooth="yes"/>
      <point x="476" y="388"/>
      <point x="560" y="310"/>
      <point x="560" y="190" type="curve" smooth="yes"/>
      <point x="560" y="70"/>
      <point x="476" y="-10"/>
      <point x="300" y="-10" type="curve" smooth="yes"/>
      <point x="124" y="-10"/>
      <point x="40" y="70"/>
    </contour>
  </outline>
</glyph>
<glyph name="question" format="2">
  <advance width="2395"/>
  <unicode hex="003F"/>
  <outline>
    <contour>
      <point x="1020" y="1467" type="line"/>
      <point x="1397" y="1577"/>
      <point x="1532" y="1914"/>
      <point x="1532" y="2294" type="curve" smooth="yes"/>
      <point x="1532" y="2680"/>
      <point x="1480" y="3072"/>
      <point x="1074" y="3072" type="curve" smooth="yes"/>
      <point x="667" y="3072"/>
      <point x="340" y="2746"/>
      <point x="304" y="2514" type="curve"/>
      <point x="326" y="2572"/>
      <point x="428" y="2662"/>
      <point x="580" y="2662" type="curve" smooth="yes"/>
      <point x="760" y="2662"/>
      <point x="918" y="2549"/>
      <point x="918" y="2355" type="curve" smooth="yes"/>
      <point x="918" y="2140"/>
      <point x="766" y="2024"/>
      <point x="582" y="2024" type="curve" smooth="yes"/>
      <point x="378" y="2024"/>
      <point x="246" y="2161"/>
      <point x="246" y="2380" type="curve" smooth="yes"/>
      <point x="246" y="2736"/>
      <point x="632" y="3112"/>
      <point x="1172" y="3112" type="curve" smooth="yes"/>
      <point x="1791" y="3112"/>
      <point x="2191" y="2786"/>
      <point x="2191" y="2294" type="curve" smooth="yes"/>
      <point x="2191" y="1822"/>
      <point x="1724" y="1486"/>
      <point x="1044" y="1450" type="curve"/>
      <point x="1044" y="999" type="line"/>
      <point x="1020" y="999" type="line"/>
    </contour>
    <component base="period" xOffset="569"/>
  </outline>
</glyph>
<glyph name="at" format="2">
  <advance width="8080"/>
  <unicode hex="0040"/>
  <outline>
    <contour>
      <point x="4656" y="2856" type="curve" smooth="yes"/>
      <point x="4656" y="1624"/>
      <point x="4080" y="560"/>
      <point x="3160" y="560" type="curve" smooth="yes"/>
      <point x="2480" y="560"/>
      <point x="1952" y="1008"/>
      <point x="1952" y="1840" type="curve" smooth="yes"/>
      <point x="1952" y="3040"/>
      <point x="2832" y="4232"/>
      <point x="3808" y="4232" type="curve" smooth="yes"/>
      <point x="4528" y="4232"/>
      <point x="4656" y="3512"/>
    </contour>
    <contour>
      <point x="4608" y="2768" type="curve" smooth="yes"/>
      <point x="4608" y="3104"/>
      <point x="4592" y="3936"/>
      <point x="4176" y="3936" type="curve" smooth="yes"/>
      <point x="3744" y="3936"/>
      <point x="3240" y="2848"/>
      <point x="3240" y="1856" type="curve" smooth="yes"/>
      <point x="3240" y="1320"/>
      <point x="3360" y="864"/>
      <point x="3648" y="864" type="curve" smooth="yes"/>
      <point x="4104" y="864"/>
      <point x="4608" y="1776"/>
    </contour>
    <contour>
      <point x="4440" y="1680" type="curve" smooth="yes"/>
      <point x="5016" y="4160" type="line"/>
      <point x="6216" y="4160" type="line"/>
      <point x="5632" y="1632" type="line" smooth="yes"/>
      <point x="5576" y="1384"/>
      <point x="5336" y="688"/>
      <point x="5824" y="688" type="curve" smooth="yes"/>
      <point x="6768" y="688"/>
      <point x="7592" y="1856"/>
      <point x="7592" y="3208" type="curve" smooth="yes"/>
      <point x="7592" y="4648"/>
      <point x="6672" y="6272"/>
      <point x="4672" y="6272" type="curve" smooth="yes"/>
      <point x="2368" y="6272"/>
      <point x="488" y="4168"/>
      <point x="488" y="1688" type="curve" smooth="yes"/>
      <point x="488" y="-792"/>
      <point x="1920" y="-1664"/>
      <point x="3352" y="-1664" type="curve" smooth="yes"/>
      <point x="4656" y="-1664"/>
      <point x="5560" y="-1264"/>
      <point x="6240" y="-480" type="curve"/>
      <point x="6280" y="-512" type="line"/>
      <point x="5608" y="-1296"/>
      <point x="4656" y="-1712"/>
      <point x="3352" y="-1712" type="curve" smooth="yes"/>
      <point x="1888" y="-1712"/>
      <point x="440" y="-824"/>
      <point x="440" y="1688" type="curve" smooth="yes"/>
      <point x="440" y="4192"/>
      <point x="2336" y="6320"/>
      <point x="4680" y="6320" type="curve" smooth="yes"/>
      <point x="6704" y="6320"/>
      <point x="7640" y="4672"/>
      <point x="7640" y="3208" type="curve" smooth="yes"/>
      <point x="7640" y="1888"/>
      <point x="6896" y="544"/>
      <point x="5408" y="544" type="curve" smooth="yes"/>
      <point x="4456" y="544"/>
      <point x="4328" y="1184"/>
    </contour>
  </outline>
</glyph>
<glyph name="A" format="2">
  <advance width="3224"/>
  <unicode hex="0041"/>
  <outline>
    <contour>
      <point x="74" y="25" type="line"/>
      <point x="976" y="25" type="line"/>
      <point x="976" y="0" type="line"/>
      <point x="74" y="0" type="line"/>
    </contour>
    <contour>
      <point x="1758.5" y="25" type="line"/>
      <point x="3151" y="25" type="line"/>
      <point x="3151" y="0" type="line"/>
      <point x="1758.5" y="0" type="line"/>
    </contour>
    <contour>
      <point x="817.5" y="1015" type="line"/>
      <point x="2126" y="1015" type="line"/>
      <point x="2126" y="989.5" type="line"/>
      <point x="817.5" y="989.5" type="line"/>
    </contour>
    <contour>
      <point x="1339" y="2439" type="line"/>
      <point x="482.5" y="0" type="line"/>
      <point x="452" y="0" type="line"/>
      <point x="1554" y="3133" type="line"/>
      <point x="1777.5" y="3133" type="line"/>
      <point x="2863.5" y="0" type="line"/>
      <point x="2126.5" y="0" type="line"/>
    </contour>
  </outline>
</glyph>
<glyph name="B" format="2">
  <advance width="2867"/>
  <unicode hex="0042"/>
  <outline>
    <contour>
      <point x="1467" y="1569.5" type="curve" smooth="yes"/>
      <point x="975.5" y="1569.5" type="line"/>
      <point x="975.5" y="1591" type="line"/>
      <point x="1385" y="1591" type="line" smooth="yes"/>
      <point x="1675.5" y="1591"/>
      <point x="1917.5" y="1786"/>
      <point x="1917.5" y="2273" type="curve" smooth="yes"/>
      <point x="1917.5" y="2760"/>
      <point x="1675.5" y="3047"/>
      <point x="1385" y="3047" type="curve" smooth="yes"/>
      <point x="74" y="3047" type="line"/>
      <point x="74" y="3072" type="line"/>
      <point x="1467" y="3072" type="line" smooth="yes"/>
      <point x="2146.5" y="3072"/>
      <point x="2573" y="2846"/>
      <point x="2573" y="2314" type="curve" smooth="yes"/>
      <point x="2573" y="1802"/>
      <point x="2187.5" y="1569.5"/>
    </contour>
    <contour>
      <point x="442.5" y="3072" type="line"/>
      <point x="1078" y="3072" type="line"/>
      <point x="1078" y="0" type="line"/>
      <point x="442.5" y="0" type="line"/>
    </contour>
    <contour>
      <point x="1549" y="0" type="curve" smooth="yes"/>
      <point x="74" y="0" type="line"/>
      <point x="74" y="25" type="line"/>
      <point x="1425.5" y="25" type="line" smooth="yes"/>
      <point x="1757" y="25"/>
      <point x="1999.5" y="373"/>
      <point x="1999.5" y="860" type="curve" smooth="yes"/>
      <point x="1999.5" y="1347"/>
      <point x="1757" y="1563.5"/>
      <point x="1425.5" y="1563.5" type="curve" smooth="yes"/>
      <point x="975.5" y="1563.5" type="line"/>
      <point x="975.5" y="1584.5" type="line"/>
      <point x="1549" y="1584.5" type="line" smooth="yes"/>
      <point x="2188" y="1584.5"/>
      <point x="2695.5" y="1392"/>
      <point x="2695.5" y="819" type="curve" smooth="yes"/>
      <point x="2695.5" y="225.5"/>
      <point x="2269.5" y="0"/>
    </contour>
  </outline>
</glyph>
<glyph name="C" format="2">
  <advance width="2877"/>
  <unicode hex="0043"/>
  <outline>
    <contour>
      <point x="2652" y="3072" type="line"/>
      <point x="2673" y="3072" type="line"/>
      <point x="2673" y="2171" type="line"/>
      <point x="2612" y="2387"/>
      <point x="2424" y="2705"/>
      <point x="2276" y="2853" type="curve"/>
    </contour>
    <contour>
      <point x="2673" y="2171" type="curve"/>
      <point x="2646" y="2171" type="line"/>
      <point x="2499" y="2696"/>
      <point x="2146" y="3072"/>
      <point x="1690" y="3072" type="curve" smooth="yes"/>
      <point x="1080" y="3072"/>
      <point x="890" y="2282"/>
      <point x="890" y="1536" type="curve" smooth="yes"/>
      <point x="890" y="790"/>
      <point x="1080" y="0"/>
      <point x="1690" y="0" type="curve" smooth="yes"/>
      <point x="2242" y="0"/>
      <point x="2556" y="409"/>
      <point x="2687" y="901" type="curve"/>
      <point x="2713" y="901" type="line"/>
      <point x="2590" y="356"/>
      <point x="2234" y="-40"/>
      <point x="1648" y="-40" type="curve" smooth="yes"/>
      <point x="734" y="-40"/>
      <point x="174" y="622"/>
      <point x="174" y="1536" type="curve" smooth="yes"/>
      <point x="174" y="2450"/>
      <point x="734" y="3112"/>
      <point x="1648" y="3112" type="curve" smooth="yes"/>
      <point x="2172" y="3112"/>
      <point x="2530" y="2716"/>
    </contour>
    <contour>
      <point x="2713" y="901" type="curve"/>
      <point x="2713" y="0" type="line"/>
      <point x="2693" y="0" type="line"/>
      <point x="2348" y="239" type="line"/>
      <point x="2493" y="386"/>
      <point x="2662" y="693"/>
    </contour>
  </outline>
</glyph>
<glyph name="D" format="2">
  <advance width="3114"/>
  <unicode hex="0044"/>
  <outline>
    <contour>
      <point x="442.5" y="3072" type="line"/>
      <point x="1078" y="3072" type="line"/>
      <point x="1078" y="0" type="line"/>
      <point x="442.5" y="0" type="line"/>
    </contour>
    <contour>
      <point x="1384.5" y="0" type="curve" smooth="yes"/>
      <point x="74" y="0" type="line"/>
      <point x="74" y="25" type="line"/>
      <point x="1384.5" y="25" type="line" smooth="yes"/>
      <point x="2015.5" y="25"/>
      <point x="2224.5" y="729.5"/>
      <point x="2224.5" y="1536" type="curve" smooth="yes"/>
      <point x="2224.5" y="2342.5"/>
      <point x="1974.5" y="3047"/>
      <point x="1384.5" y="3047" type="curve" smooth="yes"/>
      <point x="74" y="3047" type="line"/>
      <point x="74" y="3072" type="line"/>
      <point x="1384.5" y="3072" type="line" smooth="yes"/>
      <point x="2359" y="3072"/>
      <point x="2941.5" y="2449"/>
      <point x="2941.5" y="1536" type="curve" smooth="yes"/>
      <point x="2941.5" y="623"/>
      <point x="2318" y="0"/>
    </contour>
  </outline>
</glyph>
<glyph name="E" format="2">
  <advance width="2570"/>
  <unicode hex="0045"/>
  <outline>
    <contour>
      <point x="2422" y="922" type="curve"/>
      <point x="2448" y="922" type="line"/>
      <point x="2448" y="0" type="line"/>
      <point x="72" y="0" type="line"/>
      <point x="72" y="24" type="line"/>
      <point x="1506" y="24" type="line" smooth="yes"/>
      <point x="2068" y="24"/>
      <point x="2361" y="402"/>
    </contour>
    <contour>
      <point x="440" y="3072" type="line"/>
      <point x="1075" y="3072" type="line"/>
      <point x="1075" y="0" type="line"/>
      <point x="440" y="0" type="line"/>
    </contour>
    <contour>
      <point x="72" y="3072" type="line"/>
      <point x="2406" y="3072" type="line"/>
      <point x="2406" y="2232" type="line"/>
      <point x="2382" y="2232" type="line"/>
      <point x="2321" y="2670"/>
      <point x="2026" y="3048"/>
      <point x="1546" y="3048" type="curve" smooth="yes"/>
      <point x="72" y="3048" type="line"/>
    </contour>
    <contour>
      <point x="1746" y="1078" type="line"/>
      <point x="1685" y="1352"/>
      <point x="1452" y="1576"/>
      <point x="1218" y="1576" type="curve" smooth="yes"/>
      <point x="932" y="1576" type="line"/>
      <point x="932" y="1602" type="line"/>
      <point x="1218" y="1602" type="line" smooth="yes"/>
      <point x="1452" y="1602"/>
      <point x="1685" y="1806"/>
      <point x="1746" y="2080" type="curve"/>
      <point x="1772" y="2080" type="line"/>
      <point x="1772" y="1078" type="line"/>
    </contour>
  </outline>
</glyph>
<glyph name="F" format="2">
  <advance width="4816"/>
  <unicode hex="0046"/>
  <outline>
    <contour>
      <point x="144" y="6000" type="line"/>
      <point x="4576" y="6000" type="line"/>
      <point x="4576" y="4360" type="line"/>
      <point x="4528" y="4360" type="line"/>
      <point x="4408" y="5216"/>
      <point x="3920" y="5952"/>
      <point x="3024" y="5952" type="curve" smooth="yes"/>
      <point x="144" y="5952" type="line"/>
    </contour>
    <contour>
      <point x="144" y="48" type="line"/>
      <point x="2896" y="48" type="line"/>
      <point x="2896" y="0" type="line"/>
      <point x="144" y="0" type="line"/>
    </contour>
    <contour>
      <point x="864" y="6000" type="line"/>
      <point x="2096" y="6000" type="line"/>
      <point x="2096" y="0" type="line"/>
      <point x="864" y="0" type="line"/>
    </contour>
    <contour>
      <point x="3408" y="1984" type="line"/>
      <point x="3288" y="2520"/>
      <point x="2920" y="2960"/>
      <point x="2304" y="2960" type="curve" smooth="yes"/>
      <point x="1776" y="2960" type="line"/>
      <point x="1776" y="3008" type="line"/>
      <point x="2304" y="3008" type="line" smooth="yes"/>
      <point x="2920" y="3008"/>
      <point x="3288" y="3408"/>
      <point x="3408" y="3944" type="curve"/>
      <point x="3456" y="3944" type="line"/>
      <point x="3456" y="1984" type="line"/>
    </contour>
  </outline>
</glyph>
<glyph name="G" format="2">
  <advance width="757"/>
  <unicode hex="0047"/>
  <outline>
    <contour>
      <point x="672" y="530" type="line"/>
      <point x="650" y="606"/>
      <point x="603" y="668"/>
      <point x="565" y="700" type="curve"/>
      <point x="668" y="750" type="line"/>
      <point x="672" y="750" type="line"/>
    </contour>
    <contour>
      <point x="428" y="288" type="line"/>
      <point x="748" y="288" type="line"/>
      <point x="748" y="282" type="line"/>
      <point x="428" y="282" type="line"/>
    </contour>
    <contour>
      <point x="532" y="284" type="line"/>
      <point x="698" y="284" type="line"/>
      <point x="698" y="155" type="line"/>
      <point x="633" y="87"/>
      <point x="561" y="-10"/>
      <point x="398" y="-10" type="curve" smooth="yes"/>
      <point x="175" y="-10"/>
      <point x="42" y="142"/>
      <point x="42" y="375" type="curve" smooth="yes"/>
      <point x="42" y="608"/>
      <point x="209" y="760"/>
      <point x="412" y="760" type="curve" smooth="yes"/>
      <point x="540" y="760"/>
      <point x="652" y="653"/>
      <point x="672" y="530" type="curve"/>
      <point x="666" y="530" type="line"/>
      <point x="645" y="636"/>
      <point x="546" y="750"/>
      <point x="426" y="750" type="curve" smooth="yes"/>
      <point x="277" y="750"/>
      <point x="218" y="557"/>
      <point x="218" y="375" type="curve" smooth="yes"/>
      <point x="218" y="193"/>
      <point x="254" y="-3"/>
      <point x="398" y="-3" type="curve" smooth="yes"/>
      <point x="482" y="-3"/>
      <point x="517" y="83"/>
      <point x="532" y="125" type="curve"/>
    </contour>
  </outline>
</glyph>
<glyph name="H" format="2">
  <advance width="6336"/>
  <unicode hex="0048"/>
  <outline>
    <contour>
      <point x="1936" y="2984" type="line"/>
      <point x="4416" y="2984" type="line"/>
      <point x="4416" y="2936" type="line"/>
      <point x="1936" y="2936" type="line"/>
    </contour>
    <contour>
      <point x="3536" y="48" type="line"/>
      <point x="6224" y="48" type="line"/>
      <point x="6224" y="0" type="line"/>
      <point x="3536" y="0" type="line"/>
    </contour>
    <contour>
      <point x="144" y="48" type="line"/>
      <point x="2816" y="48" type="line"/>
      <point x="2816" y="0" type="line"/>
      <point x="144" y="0" type="line"/>
    </contour>
    <contour>
      <point x="3536" y="6000" type="line"/>
      <point x="6224" y="6000" type="line"/>
      <point x="6224" y="5952" type="line"/>
      <point x="3536" y="5952" type="line"/>
    </contour>
    <contour>
      <point x="144" y="6000" type="line"/>
      <point x="2816" y="6000" type="line"/>
      <point x="2816" y="5952" type="line"/>
      <point x="144" y="5952" type="line"/>
    </contour>
    <contour>
      <point x="4256" y="6000" type="line"/>
      <point x="5504" y="6000" type="line"/>
      <point x="5504" y="0" type="line"/>
      <point x="4256" y="0" type="line"/>
    </contour>
    <contour>
      <point x="864" y="6000" type="line"/>
      <point x="2096" y="6000" type="line"/>
      <point x="2096" y="0" type="line"/>
      <point x="864" y="0" type="line"/>
    </contour>
  </outline>
</glyph>
<glyph name="I" format="2">
  <advance width="1709"/>
  <unicode hex="0049"/>
  <outline>
    <contour>
      <point x="72" y="24" type="line"/>
      <point x="1648" y="24" type="line"/>
      <point x="1648" y="0" type="line"/>
      <point x="72" y="0" type="line"/>
    </contour>
    <contour>
      <point x="72" y="3072" type="line"/>
      <point x="1648" y="3072" type="line"/>
      <point x="1648" y="3048" type="line"/>
      <point x="72" y="3048" type="line"/>
    </contour>
    <contour>
      <point x="522" y="3072" type="line"/>
      <point x="1157" y="3072" type="line"/>
      <point x="1157" y="0" type="line"/>
      <point x="522" y="0" type="line"/>
    </contour>
  </outline>
</glyph>
<glyph name="J" format="2">
  <advance width="2184"/>
  <unicode hex="004A"/>
  <outline>
    <contour>
      <point x="547" y="3072" type="line"/>
      <point x="2124" y="3072" type="line"/>
      <point x="2124" y="3048" type="line"/>
      <point x="547" y="3048" type="line"/>
    </contour>
    <contour>
      <point x="1080" y="3072" type="line"/>
      <point x="1714" y="3072" type="line"/>
      <point x="1714" y="696" type="line"/>
      <point x="1550" y="306"/>
      <point x="1330" y="-122"/>
      <point x="732" y="-122" type="curve" smooth="yes"/>
      <point x="314" y="-122"/>
      <point x="50" y="122"/>
      <point x="50" y="430" type="curve" smooth="yes"/>
      <point x="50" y="663"/>
      <point x="224" y="819"/>
      <point x="428" y="819" type="curve" smooth="yes"/>
      <point x="612" y="819"/>
      <point x="780" y="683"/>
      <point x="780" y="454" type="curve" smooth="yes"/>
      <point x="780" y="249"/>
      <point x="622" y="92"/>
      <point x="424" y="92" type="curve" smooth="yes"/>
      <point x="301" y="92"/>
      <point x="203" y="135"/>
      <point x="168" y="172" type="curve"/>
      <point x="248" y="37"/>
      <point x="446" y="-98"/>
      <point x="720" y="-98" type="curve" smooth="yes"/>
      <point x="1027" y="-98"/>
      <point x="1080" y="204"/>
      <point x="1080" y="778" type="curve" smooth="yes"/>
    </contour>
  </outline>
</glyph>
<glyph name="K" format="2">
  <advance width="3152"/>
  <unicode hex="004B"/>
  <outline>
    <contour>
      <point x="74" y="25" type="line"/>
      <point x="1446.5" y="25" type="line"/>
      <point x="1446.5" y="0" type="line"/>
      <point x="74" y="0" type="line"/>
    </contour>
    <contour>
      <point x="74" y="3072" type="line"/>
      <point x="1487.5" y="3072" type="line"/>
      <point x="1487.5" y="3047" type="line"/>
      <point x="74" y="3047" type="line"/>
    </contour>
    <contour>
      <point x="442.5" y="3072" type="line"/>
      <point x="1078" y="3072" type="line"/>
      <point x="1078" y="0" type="line"/>
      <point x="442.5" y="0" type="line"/>
    </contour>
    <contour>
      <point x="632" y="889" type="line"/>
      <point x="595" y="889" type="line"/>
      <point x="2454.5" y="3064" type="line"/>
      <point x="2492" y="3064" type="line"/>
    </contour>
    <contour>
      <point x="1651.5" y="25" type="line"/>
      <point x="3125.5" y="25" type="line"/>
      <point x="3125.5" y="0" type="line"/>
      <point x="1651.5" y="0" type="line"/>
    </contour>
    <contour>
      <point x="2941" y="3047" type="line"/>
      <point x="1958.5" y="3047" type="line"/>
      <point x="1958.5" y="3072" type="line"/>
      <point x="2941" y="3072" type="line"/>
    </contour>
    <contour>
      <point x="2806.5" y="0" type="line"/>
      <point x="2069" y="0" type="line"/>
      <point x="1180.5" y="1563" type="line"/>
      <point x="1600.5" y="2039" type="line"/>
    </contour>
  </outline>
</glyph>
<glyph name="L" format="2">
  <advance width="2531"/>
  <unicode hex="004C"/>
  <outline>
    <contour>
      <point x="442.5" y="3072" type="line"/>
      <point x="1078" y="3072" type="line"/>
      <point x="1078" y="0" type="line"/>
      <point x="442.5" y="0" type="line"/>
    </contour>
    <contour>
      <point x="74" y="3072" type="line"/>
      <point x="1446" y="3072" type="line"/>
      <point x="1446" y="3047" type="line"/>
      <point x="74" y="3047" type="line"/>
    </contour>
    <contour>
      <point x="2443" y="0" type="line"/>
      <point x="74" y="0" type="line"/>
      <point x="74" y="25" type="line"/>
      <point x="1497.5" y="25" type="line" smooth="yes"/>
      <point x="2099.5" y="25"/>
      <point x="2357" y="402"/>
      <point x="2418.5" y="922" type="curve"/>
      <point x="2443" y="922" type="line"/>
    </contour>
  </outline>
</glyph>
<glyph name="M" format="2">
  <advance width="3614"/>
  <unicode hex="004D"/>
  <outline>
    <contour>
      <point x="3553" y="3072" type="line"/>
      <point x="3553" y="3048" type="line"/>
      <point x="3266" y="3048" type="line"/>
      <point x="3266" y="0" type="line"/>
      <point x="2632" y="0" type="line"/>
      <point x="2632" y="3072" type="line"/>
    </contour>
    <contour>
      <point x="92" y="24" type="line"/>
      <point x="722" y="24" type="line"/>
      <point x="722" y="0" type="line"/>
      <point x="92" y="0" type="line"/>
    </contour>
    <contour>
      <point x="2304" y="24" type="line"/>
      <point x="3553" y="24" type="line"/>
      <point x="3553" y="0" type="line"/>
      <point x="2304" y="0" type="line"/>
    </contour>
    <contour>
      <point x="1848" y="876" type="line"/>
      <point x="2620" y="3072" type="line"/>
      <point x="2644" y="3072" type="line"/>
      <point x="1558" y="-40" type="line"/>
      <point x="1530" y="-40" type="line"/>
      <point x="390" y="3072" type="line"/>
      <point x="1030" y="3072" type="line"/>
    </contour>
    <contour>
      <point x="382" y="3048" type="line"/>
      <point x="72" y="3048" type="line"/>
      <point x="72" y="3072" type="line"/>
      <point x="412" y="3072" type="line"/>
      <point x="412" y="0" type="line"/>
      <point x="382" y="0" type="line"/>
    </contour>
  </outline>
</glyph>
<glyph name="N" format="2">
  <advance width="3093"/>
  <unicode hex="004E"/>
  <outline>
    <contour>
      <point x="2563.5" y="3072" type="line"/>
      <point x="2590" y="3072" type="line"/>
      <point x="2590" y="-41" type="line"/>
      <point x="2554.5" y="-41" type="line"/>
      <point x="488" y="3072" type="line"/>
      <point x="1245.5" y="3072" type="line"/>
      <point x="2563.5" y="1043" type="line"/>
    </contour>
    <contour>
      <point x="2095" y="3072" type="line"/>
      <point x="3020" y="3072" type="line"/>
      <point x="3020" y="3047" type="line"/>
      <point x="2095" y="3047" type="line"/>
    </contour>
    <contour>
      <point x="74" y="25" type="line"/>
      <point x="986" y="25" type="line"/>
      <point x="986" y="0" type="line"/>
      <point x="74" y="0" type="line"/>
    </contour>
    <contour>
      <point x="484" y="3047" type="line"/>
      <point x="74" y="3047" type="line"/>
      <point x="74" y="3072" type="line"/>
      <point x="510.5" y="3072" type="line"/>
      <point x="510.5" y="0" type="line"/>
      <point x="484" y="0" type="line"/>
    </contour>
  </outline>
</glyph>
<glyph name="P" format="2">
  <advance width="5376"/>
  <unicode hex="0050"/>
  <outline>
    <contour>
      <point x="864" y="6000" type="line"/>
      <point x="2096" y="6000" type="line"/>
      <point x="2096" y="0" type="line"/>
      <point x="864" y="0" type="line"/>
    </contour>
    <contour>
      <point x="144" y="48" type="line"/>
      <point x="2816" y="48" type="line"/>
      <point x="2816" y="0" type="line"/>
      <point x="144" y="0" type="line"/>
    </contour>
    <contour>
      <point x="2896" y="2696" type="curve" smooth="yes"/>
      <point x="1744" y="2696" type="line"/>
      <point x="1744" y="2744" type="line"/>
      <point x="2736" y="2744" type="line" smooth="yes"/>
      <point x="3424" y="2744"/>
      <point x="3744" y="3608"/>
      <point x="3744" y="4320" type="curve" smooth="yes"/>
      <point x="3744" y="5032"/>
      <point x="3424" y="5952"/>
      <point x="2736" y="5952" type="curve" smooth="yes"/>
      <point x="144" y="5952" type="line"/>
      <point x="144" y="6000" type="line"/>
      <point x="2896" y="6000" type="line" smooth="yes"/>
      <point x="4424" y="6000"/>
      <point x="5104" y="5360"/>
      <point x="5104" y="4320" type="curve" smooth="yes"/>
      <point x="5104" y="3280"/>
      <point x="4424" y="2696"/>
    </contour>
  </outline>
</glyph>
<glyph name="Q" format="2">
  <advance width="762"/>
  <unicode hex="0051"/>
  <outline>
    <contour>
      <point x="382" y="-10" type="curve" smooth="yes"/>
      <point x="169" y="-10"/>
      <point x="42" y="157"/>
      <point x="42" y="375" type="curve" smooth="yes"/>
      <point x="42" y="593"/>
      <point x="179" y="760"/>
      <point x="382" y="760" type="curve" smooth="yes"/>
      <point x="585" y="760"/>
      <point x="722" y="593"/>
      <point x="722" y="375" type="curve" smooth="yes"/>
      <point x="722" y="157"/>
      <point x="595" y="-10"/>
    </contour>
    <contour>
      <point x="382" y="755" type="curve" smooth="yes"/>
      <point x="253" y="755"/>
      <point x="218" y="582"/>
      <point x="218" y="375" type="curve" smooth="yes"/>
      <point x="218" y="168"/>
      <point x="243" y="-5"/>
      <point x="382" y="-5" type="curve" smooth="yes"/>
      <point x="521" y="-5"/>
      <point x="548" y="168"/>
      <point x="548" y="375" type="curve" smooth="yes"/>
      <point x="548" y="582"/>
      <point x="511" y="755"/>
    </contour>
    <contour>
      <point x="582" y="-244" type="curve"/>
      <point x="582" y="-250" type="line"/>
      <point x="334" y="-250"/>
      <point x="292" y="-194"/>
      <point x="292" y="4" type="curve"/>
      <point x="348" y="-12"/>
      <point x="414" y="-12"/>
      <point x="468" y="4" type="curve"/>
      <point x="468" y="-178"/>
      <point x="474" y="-244"/>
    </contour>
  </outline>
</glyph>
<glyph name="R" format="2">
  <advance width="3053"/>
  <unicode hex="0052"/>
  <outline>
    <contour>
      <point x="1508" y="1567.5" type="curve" smooth="yes"/>
      <point x="812" y="1567.5" type="line"/>
      <point x="812" y="1587.5" type="line"/>
      <point x="1405.5" y="1587.5" type="line" smooth="yes"/>
      <point x="1798.5" y="1587.5"/>
      <point x="1999.5" y="1824"/>
      <point x="1999.5" y="2311" type="curve" smooth="yes"/>
      <point x="1999.5" y="2798"/>
      <point x="1798.5" y="3047"/>
      <point x="1405.5" y="3047" type="curve" smooth="yes"/>
      <point x="74" y="3047" type="line"/>
      <point x="74" y="3072" type="line"/>
      <point x="1508" y="3072" type="line" smooth="yes"/>
      <point x="2187.5" y="3072"/>
      <point x="2655" y="2843"/>
      <point x="2655" y="2311" type="curve" smooth="yes"/>
      <point x="2655" y="1779"/>
      <point x="2228.5" y="1567.5"/>
    </contour>
    <contour>
      <point x="74" y="25" type="line"/>
      <point x="1528" y="25" type="line"/>
      <point x="1528" y="0" type="line"/>
      <point x="74" y="0" type="line"/>
    </contour>
    <contour>
      <point x="483.5" y="3072" type="line"/>
      <point x="1119" y="3072" type="line"/>
      <point x="1119" y="0" type="line"/>
      <point x="483.5" y="0" type="line"/>
    </contour>
    <contour>
      <point x="3003" y="53" type="line"/>
      <point x="2937" y="16"/>
      <point x="2755" y="-30.5"/>
      <point x="2511.5" y="-30.5" type="curve" smooth="yes"/>
      <point x="1393.5" y="-30.5"/>
      <point x="2414" y="1560.5"/>
      <point x="1406" y="1560.5" type="curve" smooth="yes"/>
      <point x="812" y="1560.5" type="line"/>
      <point x="812" y="1578.5" type="line"/>
      <point x="1733.5" y="1578.5" type="line" smooth="yes"/>
      <point x="3072" y="1578.5"/>
      <point x="2268" y="23"/>
      <point x="2769" y="23" type="curve" smooth="yes"/>
      <point x="2855" y="23"/>
      <point x="2936" y="47.5"/>
      <point x="2993" y="74.5" type="curve"/>
    </contour>
  </outline>
</glyph>
<glyph name="S" format="2">
  <advance width="2446"/>
  <unicode hex="0053"/>
  <outline>
    <contour>
      <point x="2120" y="2192" type="curve"/>
      <point x="2093" y="2192" type="line"/>
      <point x="1929" y="2748"/>
      <point x="1612" y="3080"/>
      <point x="1149" y="3080" type="curve" smooth="yes"/>
      <point x="817" y="3080"/>
      <point x="645" y="2876"/>
      <point x="645" y="2593" type="curve" smooth="yes"/>
      <point x="645" y="1897"/>
      <point x="2284" y="2064"/>
      <point x="2284" y="880" type="curve" smooth="yes"/>
      <point x="2284" y="307"/>
      <point x="1838" y="-62"/>
      <point x="1260" y="-62" type="curve" smooth="yes"/>
      <point x="622" y="-62"/>
      <point x="334" y="430"/>
      <point x="174" y="922" type="curve"/>
      <point x="200" y="922" type="line"/>
      <point x="354" y="448"/>
      <point x="646" y="-32"/>
      <point x="1238" y="-32" type="curve" smooth="yes"/>
      <point x="1631" y="-32"/>
      <point x="1870" y="218"/>
      <point x="1870" y="578" type="curve" smooth="yes"/>
      <point x="1870" y="1356"/>
      <point x="214" y="1106"/>
      <point x="214" y="2294" type="curve" smooth="yes"/>
      <point x="214" y="2806"/>
      <point x="648" y="3112"/>
      <point x="1124" y="3112" type="curve" smooth="yes"/>
      <point x="1628" y="3112"/>
      <point x="1956" y="2770"/>
    </contour>
    <contour>
      <point x="2099" y="3112" type="line"/>
      <point x="2120" y="3112" type="line"/>
      <point x="2120" y="2192" type="line"/>
      <point x="2040" y="2415"/>
      <point x="1882" y="2723"/>
      <point x="1734" y="2871" type="curve"/>
    </contour>
    <contour>
      <point x="194" y="-40" type="line"/>
      <point x="174" y="-40" type="line"/>
      <point x="174" y="922" type="line"/>
      <point x="278" y="656"/>
      <point x="444" y="353"/>
      <point x="571" y="221" type="curve"/>
    </contour>
  </outline>
</glyph>
<glyph name="T" format="2">
  <advance width="2774"/>
  <unicode hex="0054"/>
  <outline>
    <contour>
      <point x="624" y="24" type="line"/>
      <point x="2161" y="24" type="line"/>
      <point x="2161" y="0" type="line"/>
      <point x="624" y="0" type="line"/>
    </contour>
    <contour>
      <point x="1075" y="3062" type="line"/>
      <point x="1710" y="3062" type="line"/>
      <point x="1710" y="0" type="line"/>
      <point x="1075" y="0" type="line"/>
    </contour>
    <contour>
      <point x="1976" y="3048" type="curve" smooth="yes"/>
      <point x="809" y="3048" type="line" smooth="yes"/>
      <point x="371" y="3048"/>
      <point x="157" y="2609"/>
      <point x="96" y="2089" type="curve"/>
      <point x="72" y="2089" type="line"/>
      <point x="72" y="3072" type="line"/>
      <point x="2714" y="3072" type="line"/>
      <point x="2714" y="2089" type="line"/>
      <point x="2689" y="2089" type="line"/>
      <point x="2628" y="2609"/>
      <point x="2414" y="3048"/>
    </contour>
  </outline>
</glyph>
<glyph name="U" format="2">
  <advance width="2976"/>
  <unicode hex="0055"/>
  <outline>
    <contour>
      <point x="2097" y="3072" type="line"/>
      <point x="2901.5" y="3072" type="line"/>
      <point x="2901.5" y="3047" type="line"/>
      <point x="2097" y="3047" type="line"/>
    </contour>
    <contour>
      <point x="72.5" y="3072" type="line"/>
      <point x="1486" y="3072" type="line"/>
      <point x="1486" y="3047" type="line"/>
      <point x="72.5" y="3047" type="line"/>
    </contour>
    <contour>
      <point x="2476.5" y="3072" type="line"/>
      <point x="2502.5" y="3072" type="line"/>
      <point x="2502.5" y="942" type="line" smooth="yes"/>
      <point x="2502.5" y="266"/>
      <point x="2214.5" y="-61"/>
      <point x="1547" y="-61" type="curve" smooth="yes"/>
      <point x="777" y="-61"/>
      <point x="441" y="233"/>
      <point x="441" y="942" type="curve" smooth="yes"/>
      <point x="441" y="3072" type="line"/>
      <point x="1076.5" y="3072" type="line"/>
      <point x="1076.5" y="983" type="line" smooth="yes"/>
      <point x="1076.5" y="442"/>
      <point x="1175" y="-6.5"/>
      <point x="1703.5" y="-6.5" type="curve" smooth="yes"/>
      <point x="2176" y="-6.5"/>
      <point x="2476.5" y="280.5"/>
      <point x="2476.5" y="942" type="curve" smooth="yes"/>
    </contour>
  </outline>
</glyph>
<glyph name="V" format="2">
  <advance width="3163"/>
  <unicode hex="0056"/>
  <outline>
    <contour>
      <point x="3124" y="3048" type="line"/>
      <point x="2222" y="3048" type="line"/>
      <point x="2222" y="3072" type="line"/>
      <point x="3124" y="3072" type="line"/>
    </contour>
    <contour>
      <point x="1526" y="3048" type="line"/>
      <point x="50" y="3048" type="line"/>
      <point x="50" y="3072" type="line"/>
      <point x="1526" y="3072" type="line"/>
    </contour>
    <contour>
      <point x="1866" y="633" type="line"/>
      <point x="2734" y="3072" type="line"/>
      <point x="2764" y="3072" type="line"/>
      <point x="1644" y="-62" type="line"/>
      <point x="1424" y="-62" type="line"/>
      <point x="338" y="3072" type="line"/>
      <point x="1076" y="3072" type="line"/>
    </contour>
  </outline>
</glyph>
<glyph name="W" format="2">
  <advance width="8816"/>
  <unicode hex="0057"/>
  <outline>
    <contour>
      <point x="4784" y="3800" type="line"/>
      <point x="3312" y="-80" type="line"/>
      <point x="2944" y="-80" type="line"/>
      <point x="736" y="6000" type="line"/>
      <point x="2144" y="6000" type="line"/>
      <point x="3800" y="1376" type="line"/>
      <point x="4784" y="3952" type="line"/>
    </contour>
    <contour>
      <point x="5248" y="3728" type="line"/>
      <point x="5232" y="3824" type="line"/>
      <point x="6040" y="6000" type="line"/>
      <point x="6096" y="6000" type="line"/>
    </contour>
    <contour>
      <point x="8736" y="5952" type="line"/>
      <point x="7136" y="5952" type="line"/>
      <point x="7136" y="6000" type="line"/>
      <point x="8736" y="6000" type="line"/>
    </contour>
    <contour>
      <point x="4584" y="6000" type="line"/>
      <point x="6240" y="1376" type="line"/>
      <point x="7968" y="6000" type="line"/>
      <point x="8016" y="6000" type="line"/>
      <point x="5760" y="-80" type="line"/>
      <point x="5504" y="-80" type="line"/>
      <point x="3296" y="6000" type="line"/>
    </contour>
    <contour>
      <point x="6784" y="5952" type="line"/>
      <point x="96" y="5952" type="line"/>
      <point x="96" y="6000" type="line"/>
      <point x="6784" y="6000" type="line"/>
    </contour>
  </outline>
</glyph>
<glyph name="X" format="2">
  <advance width="3245"/>
  <unicode hex="0058"/>
  <outline>
    <contour>
      <point x="1643" y="1544" type="line"/>
      <point x="1606" y="1544" type="line"/>
      <point x="2570" y="3064" type="line"/>
      <point x="2599" y="3064" type="line"/>
    </contour>
    <contour>
      <point x="518" y="0" type="line"/>
      <point x="482" y="0" type="line"/>
      <point x="1612" y="1708" type="line"/>
      <point x="1648" y="1708" type="line"/>
    </contour>
    <contour>
      <point x="1812" y="24" type="line"/>
      <point x="3205" y="24" type="line"/>
      <point x="3205" y="0" type="line"/>
      <point x="1812" y="0" type="line"/>
    </contour>
    <contour>
      <point x="50" y="24" type="line"/>
      <point x="1034" y="24" type="line"/>
      <point x="1034" y="0" type="line"/>
      <point x="50" y="0" type="line"/>
    </contour>
    <contour>
      <point x="1587" y="3048" type="line"/>
      <point x="194" y="3048" type="line"/>
      <point x="194" y="3072" type="line"/>
      <point x="1587" y="3072" type="line"/>
    </contour>
    <contour>
      <point x="2980" y="3048" type="line"/>
      <point x="2078" y="3048" type="line"/>
      <point x="2078" y="3072" type="line"/>
      <point x="2980" y="3072" type="line"/>
    </contour>
    <contour>
      <point x="2942" y="0" type="line"/>
      <point x="2206" y="0" type="line"/>
      <point x="440" y="3072" type="line"/>
      <point x="1161" y="3072" type="line"/>
    </contour>
  </outline>
</glyph>
<glyph name="Y" format="2">
  <advance width="3020"/>
  <unicode hex="0059"/>
  <outline>
    <contour>
      <point x="2980" y="3048" type="line"/>
      <point x="2120" y="3048" type="line"/>
      <point x="2120" y="3072" type="line"/>
      <point x="2980" y="3072" type="line"/>
    </contour>
    <contour>
      <point x="1484" y="3048" type="line"/>
      <point x="50" y="3048" type="line"/>
      <point x="50" y="3072" type="line"/>
      <point x="1484" y="3072" type="line"/>
    </contour>
    <contour>
      <point x="870" y="24" type="line"/>
      <point x="2284" y="24" type="line"/>
      <point x="2284" y="0" type="line"/>
      <point x="870" y="0" type="line"/>
    </contour>
    <contour>
      <point x="1860" y="1600" type="line"/>
      <point x="2601" y="3064" type="line"/>
      <point x="2634" y="3064" type="line"/>
      <point x="1874" y="1568" type="line"/>
      <point x="1874" y="0" type="line"/>
      <point x="1240" y="0" type="line"/>
      <point x="1240" y="1474" type="line"/>
      <point x="313" y="3072" type="line"/>
      <point x="1050" y="3072" type="line"/>
    </contour>
  </outline>
</glyph>
<glyph name="Z" format="2">
  <advance width="2528"/>
  <unicode hex="005A"/>
  <outline>
    <contour>
      <point x="132" y="3072" type="line"/>
      <point x="2344" y="3072" type="line"/>
      <point x="2344" y="3048" type="line"/>
      <point x="768" y="24" type="line"/>
      <point x="1526" y="24" type="line" smooth="yes"/>
      <point x="2088" y="24"/>
      <point x="2279" y="320"/>
      <point x="2361" y="840" type="curve"/>
      <point x="2386" y="840" type="line"/>
      <point x="2386" y="0" type="line"/>
      <point x="50" y="0" type="line"/>
      <point x="50" y="24" type="line"/>
      <point x="1628" y="3048" type="line"/>
      <point x="994" y="3048" type="line" smooth="yes"/>
      <point x="432" y="3048"/>
      <point x="240" y="2752"/>
      <point x="158" y="2314" type="curve"/>
      <point x="132" y="2314" type="line"/>
    </contour>
  </outline>
</glyph>
<glyph name="bracketleft" format="2">
  <advance width="355"/>
  <unicode hex="005B"/>
  <outline>
    <contour>
      <point x="325" y="-150" type="line"/>
      <point x="55" y="-150" type="line"/>
      <point x="55" y="-144" type="line"/>
      <point x="325" y="-144" type="line"/>
    </contour>
    <contour>
      <point x="325" y="774" type="line"/>
      <point x="55" y="774" type="line"/>
      <point x="55" y="780" type="line"/>
      <point x="325" y="780" type="line"/>
    </contour>
    <contour>
      <point x="205" y="780" type="line"/>
      <point x="205" y="-150" type="line"/>
      <point x="55" y="-150" type="line"/>
      <point x="55" y="780" type="line"/>
    </contour>
  </outline>
</glyph>
<glyph name="grave" format="2">
  <advance width="1678"/>
  <unicode hex="0060"/>
  <outline>
    <contour>
      <point x="492" y="2868" type="line" smooth="yes"/>
      <point x="353" y="2850"/>
      <point x="226" y="2953"/>
      <point x="226" y="3092" type="curve" smooth="yes"/>
      <point x="226" y="3231"/>
      <point x="373" y="3370"/>
      <point x="533" y="3310" type="curve" smooth="yes"/>
      <point x="1444" y="2982" type="line"/>
      <point x="1434" y="2958" type="line"/>
    </contour>
  </outline>
</glyph>
<glyph name="a" format="2">
  <advance width="4616"/>
  <unicode hex="0061"/>
  <outline>
    <contour>
      <point x="4616" y="504" type="line"/>
      <point x="4432" y="104"/>
      <point x="4016" y="-80"/>
      <point x="3552" y="-80" type="curve" smooth="yes"/>
      <point x="3056" y="-80"/>
      <point x="2616" y="80"/>
      <point x="2616" y="624" type="curve" smooth="yes"/>
      <point x="2616" y="2440" type="line" smooth="yes"/>
      <point x="2616" y="3056"/>
      <point x="2456" y="3680"/>
      <point x="1856" y="3680" type="curve" smooth="yes"/>
      <point x="1432" y="3680"/>
      <point x="1072" y="3512"/>
      <point x="928" y="3376" type="curve"/>
      <point x="1432" y="3568"/>
      <point x="1856" y="3280"/>
      <point x="1856" y="2904" type="curve" smooth="yes"/>
      <point x="1856" y="2544"/>
      <point x="1504" y="2328"/>
      <point x="1184" y="2328" type="curve" smooth="yes"/>
      <point x="824" y="2328"/>
      <point x="568" y="2560"/>
      <point x="568" y="2888" type="curve" smooth="yes"/>
      <point x="568" y="3400"/>
      <point x="1264" y="3744"/>
      <point x="2072" y="3744" type="curve" smooth="yes"/>
      <point x="3392" y="3744"/>
      <point x="3736" y="3168"/>
      <point x="3736" y="2440" type="curve" smooth="yes"/>
      <point x="3736" y="384" type="line" smooth="yes"/>
      <point x="3736" y="208"/>
      <point x="3840" y="88"/>
      <point x="4032" y="88" type="curve" smooth="yes"/>
      <point x="4160" y="88"/>
      <point x="4416" y="200"/>
      <point x="4576" y="520" type="curve"/>
    </contour>
    <contour>
      <point x="2040" y="2032" type="curve" smooth="yes"/>
      <point x="3032" y="2032" type="line"/>
      <point x="3032" y="1984" type="line"/>
      <point x="2320" y="1984" type="line" smooth="yes"/>
      <point x="1832" y="1984"/>
      <point x="1504" y="1536"/>
      <point x="1504" y="1008" type="curve" smooth="yes"/>
      <point x="1504" y="536"/>
      <point x="1664" y="256"/>
      <point x="1952" y="256" type="curve" smooth="yes"/>
      <point x="2272" y="256"/>
      <point x="2616" y="544"/>
      <point x="2616" y="1448" type="curve"/>
      <point x="2656" y="1448" type="line"/>
      <point x="2656" y="456"/>
      <point x="2256" y="-80"/>
      <point x="1368" y="-80" type="curve" smooth="yes"/>
      <point x="736" y="-80"/>
      <point x="288" y="312"/>
      <point x="288" y="904" type="curve" smooth="yes"/>
      <point x="288" y="1576"/>
      <point x="872" y="2032"/>
    </contour>
  </outline>
</glyph>
<glyph name="b" format="2">
  <advance width="2538"/>
  <unicode hex="0062"/>
  <outline>
    <contour>
      <point x="891" y="942" type="curve" smooth="yes"/>
      <point x="891" y="1564"/>
      <point x="1120" y="1922"/>
      <point x="1548" y="1922" type="curve" smooth="yes"/>
      <point x="1994" y="1922"/>
      <point x="2417" y="1556"/>
      <point x="2417" y="942" type="curve" smooth="yes"/>
      <point x="2417" y="328"/>
      <point x="1994" y="-40"/>
      <point x="1548" y="-40" type="curve" smooth="yes"/>
      <point x="1122" y="-40"/>
      <point x="891" y="320"/>
    </contour>
    <contour>
      <point x="910" y="942" type="curve" smooth="yes"/>
      <point x="910" y="328"/>
      <point x="1165" y="24"/>
      <point x="1419" y="24" type="curve" smooth="yes"/>
      <point x="1661" y="24"/>
      <point x="1761" y="352"/>
      <point x="1761" y="942" type="curve" smooth="yes"/>
      <point x="1761" y="1532"/>
      <point x="1661" y="1856"/>
      <point x="1419" y="1856" type="curve" smooth="yes"/>
      <point x="1165" y="1856"/>
      <point x="910" y="1556"/>
    </contour>
    <contour>
      <point x="336" y="3048" type="line"/>
      <point x="66" y="3048" type="line"/>
      <point x="66" y="3072" type="line"/>
      <point x="910" y="3072" type="line"/>
      <point x="910" y="0" type="line"/>
      <point x="66" y="0" type="line"/>
      <point x="66" y="24" type="line"/>
      <point x="336" y="24" type="line"/>
    </contour>
  </outline>
</glyph>
<glyph name="c" format="2">
  <advance width="2098"/>
  <unicode hex="0063"/>
  <outline>
    <contour>
      <point x="1828" y="1566" type="curve"/>
      <point x="1764" y="1742"/>
      <point x="1510" y="1894"/>
      <point x="1238" y="1894" type="curve" smooth="yes"/>
      <point x="854" y="1894"/>
      <point x="803" y="1328"/>
      <point x="803" y="942" type="curve" smooth="yes"/>
      <point x="803" y="476"/>
      <point x="893" y="8"/>
      <point x="1241" y="8" type="curve" smooth="yes"/>
      <point x="1579" y="8"/>
      <point x="1813" y="246"/>
      <point x="1917" y="586" type="curve"/>
      <point x="1942" y="586" type="line"/>
      <point x="1836" y="230"/>
      <point x="1597" y="-40"/>
      <point x="1142" y="-40" type="curve" smooth="yes"/>
      <point x="544" y="-40"/>
      <point x="126" y="287"/>
      <point x="126" y="942" type="curve" smooth="yes"/>
      <point x="126" y="1515"/>
      <point x="487" y="1926"/>
      <point x="1167" y="1926" type="curve" smooth="yes"/>
      <point x="1605" y="1926"/>
      <point x="1940" y="1682"/>
      <point x="1940" y="1366" type="curve" smooth="yes"/>
      <point x="1940" y="1157"/>
      <point x="1798" y="1040"/>
      <point x="1614" y="1040" type="curve" smooth="yes"/>
      <point x="1450" y="1040"/>
      <point x="1278" y="1126"/>
      <point x="1278" y="1362" type="curve" smooth="yes"/>
      <point x="1278" y="1566"/>
      <point x="1449" y="1668"/>
      <point x="1589" y="1668" type="curve" smooth="yes"/>
      <point x="1710" y="1668"/>
      <point x="1787" y="1622"/>
    </contour>
  </outline>
</glyph>
<glyph name="d" format="2">
  <advance width="620"/>
  <unicode hex="0064"/>
  <outline>
    <contour>
      <point x="404" y="230" type="curve" smooth="yes"/>
      <point x="404" y="78"/>
      <point x="347" y="-10"/>
      <point x="243" y="-10" type="curve" smooth="yes"/>
      <point x="134" y="-10"/>
      <point x="31" y="80"/>
      <point x="31" y="230" type="curve" smooth="yes"/>
      <point x="31" y="380"/>
      <point x="134" y="469"/>
      <point x="243" y="469" type="curve" smooth="yes"/>
      <point x="347" y="469"/>
      <point x="404" y="382"/>
    </contour>
    <contour>
      <point x="399" y="230" type="curve" smooth="yes"/>
      <point x="399" y="382"/>
      <point x="335" y="453"/>
      <point x="274" y="453" type="curve" smooth="yes"/>
      <point x="215" y="453"/>
      <point x="191" y="375"/>
      <point x="191" y="230" type="curve" smooth="yes"/>
      <point x="191" y="85"/>
      <point x="217" y="7"/>
      <point x="276" y="7" type="curve" smooth="yes"/>
      <point x="337" y="7"/>
      <point x="399" y="78"/>
    </contour>
    <contour>
      <point x="605" y="6" type="line"/>
      <point x="605" y="0" type="line"/>
      <point x="399" y="0" type="line"/>
      <point x="399" y="744" type="line"/>
      <point x="333" y="744" type="line"/>
      <point x="333" y="750" type="line"/>
      <point x="539" y="750" type="line"/>
      <point x="539" y="6" type="line"/>
    </contour>
  </outline>
</glyph>
<glyph name="e" format="2">
  <advance width="4168"/>
  <unicode hex="0065"/>
  <outline>
    <contour>
      <point x="784" y="2064" type="line"/>
      <point x="784" y="2112" type="line"/>
      <point x="2752" y="2112" type="line"/>
      <point x="2752" y="2800"/>
      <point x="2704" y="3712"/>
      <point x="2192" y="3712" type="curve" smooth="yes"/>
      <point x="1640" y="3712"/>
      <point x="1488" y="2832"/>
      <point x="1488" y="1920" type="curve" smooth="yes"/>
      <point x="1488" y="888"/>
      <point x="1664" y="0"/>
      <point x="2416" y="0" type="curve" smooth="yes"/>
      <point x="3168" y="0"/>
      <point x="3704" y="488"/>
      <point x="3904" y="1144" type="curve"/>
      <point x="3952" y="1144" type="line"/>
      <point x="3744" y="448"/>
      <point x="3176" y="-80"/>
      <point x="2208" y="-80" type="curve" smooth="yes"/>
      <point x="1080" y="-80"/>
      <point x="248" y="600"/>
      <point x="248" y="1840" type="curve" smooth="yes"/>
      <point x="248" y="3080"/>
      <point x="1064" y="3760"/>
      <point x="2192" y="3760" type="curve" smooth="yes"/>
      <point x="3384" y="3760"/>
      <point x="3944" y="2936"/>
      <point x="3944" y="2064" type="curve"/>
    </contour>
  </outline>
</glyph>
<glyph name="f" format="2">
  <advance width="1580"/>
  <unicode hex="0066"/>
  <outline>
    <contour>
      <point x="45" y="24" type="line"/>
      <point x="1428" y="24" type="line"/>
      <point x="1428" y="0" type="line"/>
      <point x="45" y="0" type="line"/>
    </contour>
    <contour>
      <point x="45" y="1884" type="line"/>
      <point x="1510" y="1884" type="line"/>
      <point x="1510" y="1860" type="line"/>
      <point x="45" y="1860" type="line"/>
    </contour>
    <contour>
      <point x="1882" y="2798" type="curve"/>
      <point x="1838" y="2914"/>
      <point x="1700" y="3088"/>
      <point x="1392" y="3088" type="curve" smooth="yes"/>
      <point x="1064" y="3088"/>
      <point x="950" y="2732"/>
      <point x="950" y="2212" type="curve" smooth="yes"/>
      <point x="950" y="0" type="line"/>
      <point x="398" y="0" type="line"/>
      <point x="398" y="2098" type="line" smooth="yes"/>
      <point x="398" y="2676"/>
      <point x="794" y="3112"/>
      <point x="1388" y="3112" type="curve" smooth="yes"/>
      <point x="1740" y="3112"/>
      <point x="1954" y="2880"/>
      <point x="1954" y="2646" type="curve" smooth="yes"/>
      <point x="1954" y="2437"/>
      <point x="1822" y="2310"/>
      <point x="1638" y="2310" type="curve" smooth="yes"/>
      <point x="1474" y="2310"/>
      <point x="1306" y="2413"/>
      <point x="1306" y="2616" type="curve" smooth="yes"/>
      <point x="1306" y="2813"/>
      <point x="1458" y="2931"/>
      <point x="1626" y="2931" type="curve" smooth="yes"/>
      <point x="1743" y="2931"/>
      <point x="1832" y="2878"/>
    </contour>
  </outline>
</glyph>
<glyph name="g" format="2">
  <advance width="4912"/>
  <unicode hex="0067"/>
  <outline>
    <contour>
      <point x="384" y="528" type="curve" smooth="yes"/>
      <point x="384" y="1136"/>
      <point x="1304" y="1344"/>
      <point x="2000" y="1344" type="curve"/>
      <point x="2000" y="1320" type="line"/>
      <point x="1656" y="1320"/>
      <point x="1088" y="1208"/>
      <point x="1088" y="920" type="curve" smooth="yes"/>
      <point x="1088" y="680"/>
      <point x="1464" y="672"/>
      <point x="1904" y="672" type="curve" smooth="yes"/>
      <point x="2184" y="672"/>
      <point x="2368" y="680"/>
      <point x="2592" y="680" type="curve" smooth="yes"/>
      <point x="3192" y="680"/>
      <point x="3928" y="432"/>
      <point x="3928" y="-656" type="curve" smooth="yes"/>
      <point x="3928" y="-1624"/>
      <point x="3128" y="-2080"/>
      <point x="2048" y="-2080" type="curve" smooth="yes"/>
      <point x="1104" y="-2080"/>
      <point x="128" y="-1800"/>
      <point x="128" y="-1072" type="curve" smooth="yes"/>
      <point x="128" y="-376"/>
      <point x="1000" y="-224"/>
      <point x="1360" y="-224" type="curve" smooth="yes"/>
      <point x="1408" y="-224" type="line"/>
      <point x="1128" y="-376"/>
      <point x="1088" y="-704"/>
      <point x="1088" y="-880" type="curve" smooth="yes"/>
      <point x="1088" y="-1504"/>
      <point x="1440" y="-2024"/>
      <point x="2128" y="-2024" type="curve" smooth="yes"/>
      <point x="2864" y="-2024"/>
      <point x="3680" y="-1728"/>
      <point x="3680" y="-992" type="curve" smooth="yes"/>
      <point x="3680" y="-496"/>
      <point x="3128" y="-272"/>
      <point x="2608" y="-272" type="curve" smooth="yes"/>
      <point x="2400" y="-272"/>
      <point x="1952" y="-272"/>
      <point x="1776" y="-272" type="curve" smooth="yes"/>
      <point x="1056" y="-272"/>
      <point x="384" y="-88"/>
    </contour>
    <contour>
      <point x="1488" y="2520" type="curve" smooth="yes"/>
      <point x="1488" y="1848"/>
      <point x="1528" y="1344"/>
      <point x="1960" y="1344" type="curve" smooth="yes"/>
      <point x="2272" y="1344"/>
      <point x="2432" y="1848"/>
      <point x="2432" y="2520" type="curve" smooth="yes"/>
      <point x="2432" y="3192"/>
      <point x="2272" y="3712"/>
      <point x="1960" y="3712" type="curve" smooth="yes"/>
      <point x="1648" y="3712"/>
      <point x="1488" y="3192"/>
    </contour>
    <contour>
      <point x="328" y="2520" type="curve" smooth="yes"/>
      <point x="328" y="3400"/>
      <point x="1192" y="3760"/>
      <point x="1960" y="3760" type="curve" smooth="yes"/>
      <point x="2728" y="3760"/>
      <point x="3592" y="3400"/>
      <point x="3592" y="2520" type="curve" smooth="yes"/>
      <point x="3592" y="1640"/>
      <point x="2728" y="1296"/>
      <point x="1960" y="1296" type="curve" smooth="yes"/>
      <point x="1192" y="1296"/>
      <point x="328" y="1640"/>
    </contour>
    <contour>
      <point x="4736" y="3200" type="curve"/>
      <point x="4688" y="3440"/>
      <point x="4480" y="3672"/>
      <point x="4064" y="3672" type="curve" smooth="yes"/>
      <point x="3664" y="3672"/>
      <point x="3200" y="3448"/>
      <point x="3040" y="2752" type="curve"/>
      <point x="3000" y="2776" type="line"/>
      <point x="3160" y="3504"/>
      <point x="3664" y="3720"/>
      <point x="4064" y="3720" type="curve" smooth="yes"/>
      <point x="4592" y="3720"/>
      <point x="4832" y="3360"/>
      <point x="4832" y="3056" type="curve" smooth="yes"/>
      <point x="4832" y="2616"/>
      <point x="4560" y="2472"/>
      <point x="4320" y="2472" type="curve" smooth="yes"/>
      <point x="4080" y="2472"/>
      <point x="3824" y="2632"/>
      <point x="3824" y="2976" type="curve" smooth="yes"/>
      <point x="3824" y="3240"/>
      <point x="4032" y="3448"/>
      <point x="4320" y="3448" type="curve" smooth="yes"/>
      <point x="4528" y="3448"/>
      <point x="4696" y="3328"/>
    </contour>
  </outline>
</glyph>
<glyph name="h" format="2">
  <advance width="4864"/>
  <unicode hex="0068"/>
  <outline>
    <contour>
      <point x="3096" y="2528" type="line" smooth="yes"/>
      <point x="3096" y="3200"/>
      <point x="3024" y="3512"/>
      <point x="2688" y="3512" type="curve" smooth="yes"/>
      <point x="1952" y="3512"/>
      <point x="1776" y="2528"/>
      <point x="1776" y="1784" type="curve"/>
      <point x="1744" y="1768" type="line"/>
      <point x="1744" y="2568"/>
      <point x="1880" y="3760"/>
      <point x="3080" y="3760" type="curve" smooth="yes"/>
      <point x="3976" y="3760"/>
      <point x="4216" y="3248"/>
      <point x="4216" y="2552" type="curve" smooth="yes"/>
      <point x="4216" y="0" type="line"/>
      <point x="3096" y="0" type="line"/>
    </contour>
    <contour>
      <point x="2688" y="48" type="line"/>
      <point x="4752" y="48" type="line"/>
      <point x="4752" y="0" type="line"/>
      <point x="2688" y="0" type="line"/>
    </contour>
    <contour>
      <point x="128" y="48" type="line"/>
      <point x="2192" y="48" type="line"/>
      <point x="2192" y="0" type="line"/>
      <point x="128" y="0" type="line"/>
    </contour>
    <contour>
      <point x="656" y="5952" type="line"/>
      <point x="128" y="5952" type="line"/>
      <point x="128" y="6000" type="line"/>
      <point x="1776" y="6000" type="line"/>
      <point x="1776" y="0" type="line"/>
      <point x="656" y="0" type="line"/>
    </contour>
  </outline>
</glyph>
<glyph name="i" format="2">
  <advance width="306"/>
  <unicode hex="0069"/>
  <outline>
    <contour>
      <point x="21" y="6" type="line"/>
      <point x="294" y="6" type="line"/>
      <point x="294" y="0" type="line"/>
      <point x="21" y="0" type="line"/>
    </contour>
    <contour>
      <point x="62" y="675" type="curve" smooth="yes"/>
      <point x="62" y="723"/>
      <point x="99" y="760"/>
      <point x="147" y="760" type="curve" smooth="yes"/>
      <point x="195" y="760"/>
      <point x="232" y="723"/>
      <point x="232" y="675" type="curve" smooth="yes"/>
      <point x="232" y="627"/>
      <point x="195" y="590"/>
      <point x="147" y="590" type="curve" smooth="yes"/>
      <point x="99" y="590"/>
      <point x="62" y="627"/>
    </contour>
    <contour>
      <point x="87" y="454" type="line"/>
      <point x="21" y="454" type="line"/>
      <point x="21" y="460" type="line"/>
      <point x="227" y="460" type="line"/>
      <point x="227" y="0" type="line"/>
      <point x="87" y="0" type="line"/>
    </contour>
  </outline>
</glyph>
<glyph name="j" format="2">
  <advance width="1285"/>
  <unicode hex="006A"/>
  <outline>
    <contour>
      <point x="324" y="2764" type="curve" smooth="yes"/>
      <point x="324" y="2960"/>
      <point x="476" y="3112"/>
      <point x="672" y="3112" type="curve" smooth="yes"/>
      <point x="868" y="3112"/>
      <point x="1020" y="2960"/>
      <point x="1020" y="2764" type="curve" smooth="yes"/>
      <point x="1020" y="2568"/>
      <point x="868" y="2416"/>
      <point x="672" y="2416" type="curve" smooth="yes"/>
      <point x="476" y="2416"/>
      <point x="324" y="2568"/>
    </contour>
    <contour>
      <point x="992" y="1884" type="line"/>
      <point x="992" y="-50" type="line" smooth="yes"/>
      <point x="992" y="-586"/>
      <point x="675" y="-1064"/>
      <point x="102" y="-1064" type="curve" smooth="yes"/>
      <point x="-271" y="-1064"/>
      <point x="-524" y="-847"/>
      <point x="-524" y="-577" type="curve" smooth="yes"/>
      <point x="-524" y="-370"/>
      <point x="-366" y="-242"/>
      <point x="-188" y="-242" type="curve" smooth="yes"/>
      <point x="-24" y="-242"/>
      <point x="143" y="-340"/>
      <point x="143" y="-545" type="curve" smooth="yes"/>
      <point x="143" y="-740"/>
      <point x="1" y="-856"/>
      <point x="-209" y="-856" type="curve" smooth="yes"/>
      <point x="-350" y="-856"/>
      <point x="-442" y="-764"/>
      <point x="-458" y="-668" type="curve"/>
      <point x="-446" y="-848"/>
      <point x="-235" y="-1032"/>
      <point x="54" y="-1032" type="curve" smooth="yes"/>
      <point x="484" y="-1032"/>
      <point x="410" y="-434"/>
      <point x="410" y="86" type="curve" smooth="yes"/>
      <point x="418" y="1860" type="line"/>
      <point x="66" y="1860" type="line"/>
      <point x="66" y="1884" type="line"/>
    </contour>
  </outline>
</glyph>
<glyph name="k" format="2">
  <advance width="2571"/>
  <unicode hex="006B"/>
  <outline>
    <contour>
      <point x="2396" y="0" type="line"/>
      <point x="1688" y="0" type="line"/>
      <point x="877" y="1090" type="line"/>
      <point x="1991" y="1884" type="line"/>
      <point x="2030" y="1884" type="line"/>
      <point x="1332" y="1372" type="line"/>
    </contour>
    <contour>
      <point x="1413" y="24" type="line"/>
      <point x="2552" y="24" type="line"/>
      <point x="2552" y="0" type="line"/>
      <point x="1413" y="0" type="line"/>
    </contour>
    <contour>
      <point x="2351" y="1860" type="line"/>
      <point x="1470" y="1860" type="line"/>
      <point x="1470" y="1884" type="line"/>
      <point x="2351" y="1884" type="line"/>
    </contour>
    <contour>
      <point x="66" y="24" type="line"/>
      <point x="1216" y="24" type="line"/>
      <point x="1216" y="0" type="line"/>
      <point x="66" y="0" type="line"/>
    </contour>
    <contour>
      <point x="418" y="3048" type="line"/>
      <point x="66" y="3048" type="line"/>
      <point x="66" y="3072" type="line"/>
      <point x="992" y="3072" type="line"/>
      <point x="992" y="0" type="line"/>
      <point x="418" y="0" type="line"/>
    </contour>
  </outline>
</glyph>
<glyph name="l" format="2">
  <advance width="2744"/>
  <unicode hex="006C"/>
  <outline>
    <contour>
      <point x="128" y="48" type="line"/>
      <point x="2624" y="48" type="line"/>
      <point x="2624" y="0" type="line"/>
      <point x="128" y="0" type="line"/>
    </contour>
    <contour>
      <point x="816" y="5952" type="line"/>
      <point x="128" y="5952" type="line"/>
      <point x="128" y="6000" type="line"/>
      <point x="1936" y="6000" type="line"/>
      <point x="1936" y="0" type="line"/>
      <point x="816" y="0" type="line"/>
    </contour>
  </outline>
</glyph>
<glyph name="m" format="2">
  <advance width="3577"/>
  <unicode hex="006D"/>
  <outline>
    <contour>
      <point x="2077" y="1306" type="curve" smooth="yes"/>
      <point x="2077" y="0" type="line"/>
      <point x="1504" y="0" type="line"/>
      <point x="1504" y="1295" type="line" smooth="yes"/>
      <point x="1504" y="1639"/>
      <point x="1473" y="1802"/>
      <point x="1319" y="1802" type="curve" smooth="yes"/>
      <point x="1009" y="1802"/>
      <point x="910" y="1318"/>
      <point x="910" y="914" type="curve"/>
      <point x="891" y="906" type="line"/>
      <point x="891" y="1314"/>
      <point x="950" y="1926"/>
      <point x="1528" y="1926" type="curve" smooth="yes"/>
      <point x="1938" y="1926"/>
      <point x="2077" y="1662"/>
    </contour>
    <contour>
      <point x="66" y="24" type="line"/>
      <point x="1110" y="24" type="line"/>
      <point x="1110" y="0" type="line"/>
      <point x="66" y="0" type="line"/>
    </contour>
    <contour>
      <point x="1304" y="24" type="line"/>
      <point x="2277" y="24" type="line"/>
      <point x="2277" y="0" type="line"/>
      <point x="1304" y="0" type="line"/>
    </contour>
    <contour>
      <point x="2472" y="24" type="line"/>
      <point x="3516" y="24" type="line"/>
      <point x="3516" y="0" type="line"/>
      <point x="2472" y="0" type="line"/>
    </contour>
    <contour>
      <point x="336" y="1860" type="line"/>
      <point x="66" y="1860" type="line"/>
      <point x="66" y="1884" type="line"/>
      <point x="910" y="1884" type="line"/>
      <point x="910" y="0" type="line"/>
      <point x="336" y="0" type="line"/>
    </contour>
    <contour>
      <point x="3244" y="1306" type="curve" smooth="yes"/>
      <point x="3244" y="0" type="line"/>
      <point x="2670" y="0" type="line"/>
      <point x="2670" y="1295" type="line" smooth="yes"/>
      <point x="2670" y="1639"/>
      <point x="2636" y="1802"/>
      <point x="2482" y="1802" type="curve" smooth="yes"/>
      <point x="2168" y="1802"/>
      <point x="2077" y="1318"/>
      <point x="2077" y="914" type="curve"/>
      <point x="2056" y="906" type="line"/>
      <point x="2056" y="1314"/>
      <point x="2107" y="1926"/>
      <point x="2691" y="1926" type="curve" smooth="yes"/>
      <point x="3101" y="1926"/>
      <point x="3244" y="1662"/>
    </contour>
  </outline>
</glyph>
<glyph name="n" format="2">
  <advance width="2491"/>
  <unicode hex="006E"/>
  <outline>
    <contour>
      <point x="1586" y="1295" type="line" smooth="yes"/>
      <point x="1586" y="1639"/>
      <point x="1550" y="1798"/>
      <point x="1378" y="1798" type="curve" smooth="yes"/>
      <point x="1008" y="1798"/>
      <point x="910" y="1296"/>
      <point x="910" y="914" type="curve"/>
      <point x="891" y="906" type="line"/>
      <point x="891" y="1314"/>
      <point x="967" y="1926"/>
      <point x="1577" y="1926" type="curve" smooth="yes"/>
      <point x="2031" y="1926"/>
      <point x="2159" y="1662"/>
      <point x="2159" y="1306" type="curve" smooth="yes"/>
      <point x="2159" y="0" type="line"/>
      <point x="1586" y="0" type="line"/>
    </contour>
    <contour>
      <point x="1376" y="24" type="line"/>
      <point x="2431" y="24" type="line"/>
      <point x="2431" y="0" type="line"/>
      <point x="1376" y="0" type="line"/>
    </contour>
    <contour>
      <point x="66" y="24" type="line"/>
      <point x="1120" y="24" type="line"/>
      <point x="1120" y="0" type="line"/>
      <point x="66" y="0" type="line"/>
    </contour>
    <contour>
      <point x="336" y="1860" type="line"/>
      <point x="66" y="1860" type="line"/>
      <point x="66" y="1884" type="line"/>
      <point x="910" y="1884" type="line"/>
      <point x="910" y="0" type="line"/>
      <point x="336" y="0" type="line"/>
    </contour>
  </outline>
</glyph>
<glyph name="o" format="2">
  <advance width="2248"/>
  <unicode hex="006F"/>
  <outline>
    <contour>
      <point x="742" y="942" type="curve" smooth="yes"/>
      <point x="742" y="454"/>
      <point x="823" y="-16"/>
      <point x="1126" y="-16" type="curve" smooth="yes"/>
      <point x="1429" y="-16"/>
      <point x="1512" y="454"/>
      <point x="1512" y="942" type="curve" smooth="yes"/>
      <point x="1512" y="1430"/>
      <point x="1429" y="1900"/>
      <point x="1126" y="1900" type="curve" smooth="yes"/>
      <point x="823" y="1900"/>
      <point x="742" y="1430"/>
    </contour>
    <contour>
      <point x="126" y="942" type="curve" smooth="yes"/>
      <point x="126" y="1474"/>
      <point x="507" y="1926"/>
      <point x="1126" y="1926" type="curve" smooth="yes"/>
      <point x="1745" y="1926"/>
      <point x="2126" y="1474"/>
      <point x="2126" y="942" type="curve" smooth="yes"/>
      <point x="2126" y="410"/>
      <point x="1745" y="-40"/>
      <point x="1126" y="-40" type="curve" smooth="yes"/>
      <point x="507" y="-40"/>
      <point x="126" y="410"/>
    </contour>
  </outline>
</glyph>
<glyph name="p" format="2">
  <advance width="2589"/>
  <unicode hex="0070"/>
  <outline>
    <contour>
      <point x="911" y="942" type="curve" smooth="yes"/>
      <point x="911" y="1556.5"/>
      <point x="1146" y="1921"/>
      <point x="1572" y="1921" type="curve" smooth="yes"/>
      <point x="2016.5" y="1921"/>
      <point x="2440" y="1556"/>
      <point x="2440" y="942" type="curve" smooth="yes"/>
      <point x="2440" y="328"/>
      <point x="2016.5" y="-41"/>
      <point x="1572" y="-41" type="curve" smooth="yes"/>
      <point x="1148" y="-41"/>
      <point x="911" y="327.5"/>
    </contour>
    <contour>
      <point x="933" y="942" type="curve" smooth="yes"/>
      <point x="933" y="325.5"/>
      <point x="1194.5" y="24.5"/>
      <point x="1442.5" y="24.5" type="curve" smooth="yes"/>
      <point x="1686" y="24.5"/>
      <point x="1785" y="361.5"/>
      <point x="1785" y="942" type="curve" smooth="yes"/>
      <point x="1785" y="1522.5"/>
      <point x="1688" y="1855.5"/>
      <point x="1444.5" y="1855.5" type="curve" smooth="yes"/>
      <point x="1193" y="1855.5"/>
      <point x="933" y="1558.5"/>
    </contour>
    <contour>
      <point x="90.5" y="-999" type="line"/>
      <point x="1201.5" y="-999" type="line"/>
      <point x="1201.5" y="-1024" type="line"/>
      <point x="90.5" y="-1024" type="line"/>
    </contour>
    <contour>
      <point x="360" y="1859" type="line"/>
      <point x="90.5" y="1859" type="line"/>
      <point x="90.5" y="1884" type="line"/>
      <point x="933" y="1884" type="line"/>
      <point x="933" y="-1024" type="line"/>
      <point x="360" y="-1024" type="line"/>
    </contour>
  </outline>
</glyph>
<glyph name="q" format="2">
  <advance width="620"/>
  <unicode hex="0071"/>
  <outline>
    <contour>
      <point x="404" y="230" type="curve" smooth="yes"/>
      <point x="404" y="78"/>
      <point x="347" y="-10"/>
      <point x="243" y="-10" type="curve" smooth="yes"/>
      <point x="134" y="-10"/>
      <point x="31" y="80"/>
      <point x="31" y="230" type="curve" smooth="yes"/>
      <point x="31" y="380"/>
      <point x="134" y="469"/>
      <point x="243" y="469" type="curve" smooth="yes"/>
      <point x="347" y="469"/>
      <point x="404" y="382"/>
    </contour>
    <contour>
      <point x="399" y="230" type="curve" smooth="yes"/>
      <point x="399" y="382"/>
      <point x="335" y="453"/>
      <point x="274" y="453" type="curve" smooth="yes"/>
      <point x="215" y="453"/>
      <point x="191" y="372"/>
      <point x="191" y="230" type="curve" smooth="yes"/>
      <point x="191" y="88"/>
      <point x="215" y="7"/>
      <point x="274" y="7" type="curve" smooth="yes"/>
      <point x="338" y="7"/>
      <point x="399" y="78"/>
    </contour>
    <contour>
      <point x="605" y="-244" type="line"/>
      <point x="605" y="-250" type="line"/>
      <point x="333" y="-250" type="line"/>
      <point x="333" y="-244" type="line"/>
    </contour>
    <contour>
      <point x="605" y="460" type="line"/>
      <point x="605" y="454" type="line"/>
      <point x="539" y="454" type="line"/>
      <point x="539" y="-250" type="line"/>
      <point x="399" y="-250" type="line"/>
      <point x="399" y="460" type="line"/>
    </contour>
  </outline>
</glyph>
<glyph name="r" format="2">
  <advance width="1999"/>
  <unicode hex="0072"/>
  <outline>
    <contour>
      <point x="1862.5" y="1652" type="curve"/>
      <point x="1793.5" y="1814"/>
      <point x="1623" y="1897.5"/>
      <point x="1465.5" y="1897.5" type="curve" smooth="yes"/>
      <point x="995" y="1897.5"/>
      <point x="932" y="1361"/>
      <point x="932" y="909" type="curve"/>
      <point x="911" y="909" type="line"/>
      <point x="911" y="1406"/>
      <point x="978" y="1925"/>
      <point x="1470.5" y="1925" type="curve" smooth="yes"/>
      <point x="1702" y="1925"/>
      <point x="1928" y="1753"/>
      <point x="1928" y="1494.5" type="curve" smooth="yes"/>
      <point x="1928" y="1304"/>
      <point x="1805" y="1142"/>
      <point x="1588.5" y="1142" type="curve" smooth="yes"/>
      <point x="1392" y="1142"/>
      <point x="1244" y="1266"/>
      <point x="1244" y="1467.5" type="curve" smooth="yes"/>
      <point x="1244" y="1776"/>
      <point x="1657.5" y="1920.5"/>
    </contour>
    <contour>
      <point x="90.5" y="25" type="line"/>
      <point x="1203" y="25" type="line"/>
      <point x="1203" y="0" type="line"/>
      <point x="90.5" y="0" type="line"/>
    </contour>
    <contour>
      <point x="360" y="1859" type="line"/>
      <point x="90.5" y="1859" type="line"/>
      <point x="90.5" y="1884" type="line"/>
      <point x="932" y="1884" type="line"/>
      <point x="932" y="0" type="line"/>
      <point x="360" y="0" type="line"/>
    </contour>
  </outline>
</glyph>
<glyph name="s" format="2">
  <advance width="1853"/>
  <unicode hex="0073"/>
  <outline>
    <contour>
      <point x="1496.5" y="1524" type="curve"/>
      <point x="1442" y="1611"/>
      <point x="1378" y="1681"/>
      <point x="1310" y="1745.5" type="curve"/>
      <point x="1560" y="1925" type="line"/>
      <point x="1582" y="1925" type="line"/>
      <point x="1582" y="1352" type="line"/>
      <point x="1560.5" y="1352" type="line"/>
      <point x="1546" y="1411.5"/>
      <point x="1527.5" y="1469.5"/>
    </contour>
    <contour>
      <point x="1578" y="1352" type="curve"/>
      <point x="1557" y="1352" type="line"/>
      <point x="1472.5" y="1609"/>
      <point x="1235.5" y="1894"/>
      <point x="853.5" y="1894" type="curve" smooth="yes"/>
      <point x="634.5" y="1894"/>
      <point x="482" y="1789.5"/>
      <point x="482" y="1628" type="curve" smooth="yes"/>
      <point x="482" y="1196"/>
      <point x="1721" y="1366"/>
      <point x="1721" y="601" type="curve" smooth="yes"/>
      <point x="1721" y="175"/>
      <point x="1358.5" y="-41"/>
      <point x="983" y="-41" type="curve" smooth="yes"/>
      <point x="578.5" y="-41"/>
      <point x="282" y="216"/>
      <point x="180" y="596.5" type="curve"/>
      <point x="201.5" y="596.5" type="line"/>
      <point x="307.5" y="228.5"/>
      <point x="601" y="-12.5"/>
      <point x="966" y="-12.5" type="curve" smooth="yes"/>
      <point x="1221.5" y="-12.5"/>
      <point x="1417.5" y="94"/>
      <point x="1417.5" y="301" type="curve" smooth="yes"/>
      <point x="1417.5" y="745"/>
      <point x="218" y="534.5"/>
      <point x="218" y="1332.5" type="curve" smooth="yes"/>
      <point x="218" y="1656"/>
      <point x="462" y="1921"/>
      <point x="851" y="1921" type="curve" smooth="yes"/>
      <point x="1251" y="1921"/>
      <point x="1496" y="1622"/>
    </contour>
    <contour>
      <point x="197.5" y="-41" type="line"/>
      <point x="176" y="-41" type="line"/>
      <point x="176" y="596.5" type="line"/>
      <point x="199.5" y="596.5" type="line"/>
      <point x="210" y="514.5"/>
      <point x="237.5" y="448.5"/>
      <point x="266.5" y="392" type="curve"/>
      <point x="334.5" y="284.5"/>
      <point x="391.5" y="218"/>
      <point x="451" y="161" type="curve"/>
    </contour>
  </outline>
</glyph>
<glyph name="t" format="2">
  <advance width="1513"/>
  <unicode hex="0074"/>
  <outline>
    <contour>
      <point x="49.5" y="1884" type="line"/>
      <point x="1357.5" y="1884" type="line"/>
      <point x="1357.5" y="1859" type="line"/>
      <point x="49.5" y="1859" type="line"/>
    </contour>
    <contour>
      <point x="1480" y="409" type="line"/>
      <point x="1381" y="152"/>
      <point x="1156.5" y="-29"/>
      <point x="823.5" y="-29" type="curve" smooth="yes"/>
      <point x="426" y="-29"/>
      <point x="346" y="189"/>
      <point x="346" y="475.5" type="curve" smooth="yes"/>
      <point x="346" y="2294" type="line"/>
      <point x="530.5" y="2294"/>
      <point x="776" y="2335.5"/>
      <point x="919.5" y="2417" type="curve"/>
      <point x="919.5" y="354.5" type="line" smooth="yes"/>
      <point x="919.5" y="149.5"/>
      <point x="964" y="73.5"/>
      <point x="1075" y="73.5" type="curve" smooth="yes"/>
      <point x="1207.5" y="73.5"/>
      <point x="1369.5" y="205.5"/>
      <point x="1457.5" y="417.5" type="curve"/>
    </contour>
  </outline>
</glyph>
<glyph name="u" format="2">
  <advance width="4864"/>
  <unicode hex="0075"/>
  <outline>
    <contour>
      <point x="1776" y="3680" type="line"/>
      <point x="1776" y="1152" type="line" smooth="yes"/>
      <point x="1776" y="480"/>
      <point x="1848" y="168"/>
      <point x="2184" y="168" type="curve" smooth="yes"/>
      <point x="2904" y="168"/>
      <point x="3096" y="1152"/>
      <point x="3096" y="1896" type="curve"/>
      <point x="3136" y="1912" type="line"/>
      <point x="3136" y="1112"/>
      <point x="2984" y="-80"/>
      <point x="1792" y="-80" type="curve" smooth="yes"/>
      <point x="904" y="-80"/>
      <point x="656" y="432"/>
      <point x="656" y="1128" type="curve" smooth="yes"/>
      <point x="656" y="3632" type="line"/>
      <point x="128" y="3632" type="line"/>
      <point x="128" y="3680" type="line"/>
    </contour>
    <contour>
      <point x="4216" y="48" type="line"/>
      <point x="4752" y="48" type="line"/>
      <point x="4752" y="0" type="line"/>
      <point x="3096" y="0" type="line"/>
      <point x="3096" y="3632" type="line"/>
      <point x="2576" y="3632" type="line"/>
      <point x="2576" y="3680" type="line"/>
      <point x="4216" y="3680" type="line"/>
    </contour>
  </outline>
</glyph>
<glyph name="v" format="2">
  <advance width="2315"/>
  <unicode hex="0076"/>
  <outline>
    <contour>
      <point x="2312" y="1860" type="line"/>
      <point x="1548" y="1860" type="line"/>
      <point x="1548" y="1884" type="line"/>
      <point x="2312" y="1884" type="line"/>
    </contour>
    <contour>
      <point x="1194" y="1860" type="line"/>
      <point x="-8" y="1860" type="line"/>
      <point x="-8" y="1884" type="line"/>
      <point x="1194" y="1884" type="line"/>
    </contour>
    <contour>
      <point x="1384" y="492" type="line"/>
      <point x="1948" y="1884" type="line"/>
      <point x="1982" y="1884" type="line"/>
      <point x="1202" y="-40" type="line"/>
      <point x="1032" y="-40" type="line"/>
      <point x="242" y="1884" type="line"/>
      <point x="876" y="1884" type="line"/>
    </contour>
  </outline>
</glyph>
<glyph name="w" format="2">
  <advance width="3383"/>
  <unicode hex="0077"/>
  <outline>
    <contour>
      <point x="1222.5" y="1859" type="line"/>
      <point x="17" y="1859" type="line"/>
      <point x="17" y="1884" type="line"/>
      <point x="1222.5" y="1884" type="line"/>
    </contour>
    <contour>
      <point x="3349.5" y="1859" type="line"/>
      <point x="2520" y="1859" type="line"/>
      <point x="2520" y="1884" type="line"/>
      <point x="3349.5" y="1884" type="line"/>
    </contour>
    <contour>
      <point x="1258.5" y="526.5" type="line"/>
      <point x="1834.5" y="1925" type="line"/>
      <point x="2124.5" y="1925" type="line"/>
      <point x="2523.5" y="616" type="line"/>
      <point x="2946" y="1884" type="line"/>
      <point x="2978.5" y="1884" type="line"/>
      <point x="2334.5" y="-41" type="line"/>
      <point x="2162.5" y="-41" type="line"/>
      <point x="1640.5" y="1379" type="line"/>
      <point x="1057.5" y="-41" type="line"/>
      <point x="884" y="-41" type="line"/>
      <point x="260.5" y="1884" type="line"/>
      <point x="867" y="1884" type="line"/>
    </contour>
  </outline>
</glyph>
<glyph name="x" format="2">
  <advance width="2321"/>
  <unicode hex="0078"/>
  <outline>
    <contour>
      <point x="1168" y="24" type="line"/>
      <point x="2292" y="24" type="line"/>
      <point x="2292" y="0" type="line"/>
      <point x="1168" y="0" type="line"/>
    </contour>
    <contour>
      <point x="32" y="24" type="line"/>
      <point x="780" y="24" type="line"/>
      <point x="780" y="0" type="line"/>
      <point x="32" y="0" type="line"/>
    </contour>
    <contour>
      <point x="1214" y="1860" type="line"/>
      <point x="53" y="1860" type="line"/>
      <point x="53" y="1884" type="line"/>
      <point x="1214" y="1884" type="line"/>
    </contour>
    <contour>
      <point x="2240" y="1860" type="line"/>
      <point x="1534" y="1860" type="line"/>
      <point x="1534" y="1884" type="line"/>
      <point x="2240" y="1884" type="line"/>
    </contour>
    <contour>
      <point x="2122" y="0" type="line"/>
      <point x="1446" y="0" type="line"/>
      <point x="262" y="1884" type="line"/>
      <point x="918" y="1884" type="line"/>
    </contour>
    <contour>
      <point x="336" y="0" type="line"/>
      <point x="302" y="0" type="line"/>
      <point x="1895" y="1884" type="line"/>
      <point x="1932" y="1884" type="line"/>
    </contour>
  </outline>
</glyph>
<glyph name="y" format="2">
  <advance width="2399"/>
  <unicode hex="0079"/>
  <outline>
    <contour>
      <point x="1300" y="1860" type="line"/>
      <point x="-29" y="1860" type="line"/>
      <point x="-29" y="1884" type="line"/>
      <point x="1300" y="1884" type="line"/>
    </contour>
    <contour>
      <point x="2451" y="1860" type="line"/>
      <point x="1720" y="1860" type="line"/>
      <point x="1720" y="1884" type="line"/>
      <point x="2451" y="1884" type="line"/>
    </contour>
    <contour>
      <point x="1560" y="566" type="line"/>
      <point x="1238" y="-100" type="line"/>
      <point x="218" y="1884" type="line"/>
      <point x="893" y="1884" type="line"/>
    </contour>
    <contour>
      <point x="916" y="-786" type="curve"/>
      <point x="2138" y="1884" type="line"/>
      <point x="2173" y="1884" type="line"/>
      <point x="942" y="-788" type="line" smooth="yes"/>
      <point x="868" y="-944"/>
      <point x="770" y="-1054"/>
      <point x="594" y="-1054" type="curve" smooth="yes"/>
      <point x="430" y="-1054"/>
      <point x="274" y="-946"/>
      <point x="274" y="-749" type="curve" smooth="yes"/>
      <point x="274" y="-573"/>
      <point x="410" y="-426"/>
      <point x="602" y="-426" type="curve" smooth="yes"/>
      <point x="780" y="-426"/>
      <point x="931" y="-580"/>
    </contour>
  </outline>
</glyph>
<glyph name="z" format="2">
  <advance width="3768"/>
  <unicode hex="007A"/>
  <outline>
    <contour>
      <point x="1616" y="3632" type="line" smooth="yes"/>
      <point x="864" y="3632"/>
      <point x="480" y="3112"/>
      <point x="360" y="2304" type="curve"/>
      <point x="312" y="2304" type="line"/>
      <point x="312" y="3680" type="line"/>
      <point x="3520" y="3680" type="line"/>
      <point x="3520" y="3632" type="line"/>
      <point x="1352" y="48" type="line"/>
      <point x="2160" y="48" type="line" smooth="yes"/>
      <point x="3096" y="48"/>
      <point x="3480" y="480"/>
      <point x="3600" y="1472" type="curve"/>
      <point x="3648" y="1472" type="line"/>
      <point x="3648" y="0" type="line"/>
      <point x="88" y="0" type="line"/>
      <point x="88" y="48" type="line"/>
      <point x="2248" y="3632" type="line"/>
    </contour>
  </outline>
</glyph>
<glyph name="braceleft" format="2">
  <advance width="1359"/>
  <unicode hex="007B"/>
  <outline>
    <contour>
      <point x="1236.5" y="3194.5" type="curve"/>
      <point x="1236.5" y="3169" type="line"/>
      <point x="982.5" y="3169"/>
      <point x="852" y="2908"/>
      <point x="852" y="2650" type="curve" smooth="yes"/>
      <point x="852" y="2379.5"/>
      <point x="990.5" y="2195.5"/>
      <point x="990.5" y="1826.5" type="curve" smooth="yes"/>
      <point x="990.5" y="1486.5"/>
      <point x="774" y="1370"/>
      <point x="225.5" y="1288" type="curve"/>
      <point x="225.5" y="1305" type="line"/>
      <point x="348" y="1345.5"/>
      <point x="471.5" y="1454"/>
      <point x="471.5" y="1622" type="curve" smooth="yes"/>
      <point x="471.5" y="1880"/>
      <point x="225.5" y="2064.5"/>
      <point x="225.5" y="2585" type="curve" smooth="yes"/>
      <point x="225.5" y="2990.5"/>
      <point x="458.5" y="3194.5"/>
    </contour>
    <contour>
      <point x="1236.5" y="-614" type="line"/>
      <point x="458.5" y="-614"/>
      <point x="225.5" y="-406"/>
      <point x="225.5" y="-0.5" type="curve" smooth="yes"/>
      <point x="225.5" y="520"/>
      <point x="471.5" y="704.5"/>
      <point x="471.5" y="962.5" type="curve" smooth="yes"/>
      <point x="471.5" y="1130.5"/>
      <point x="348" y="1236.5"/>
      <point x="225.5" y="1277" type="curve"/>
      <point x="225.5" y="1296" type="line"/>
      <point x="774" y="1214"/>
      <point x="990.5" y="1097.5"/>
      <point x="990.5" y="757.5" type="curve" smooth="yes"/>
      <point x="990.5" y="388.5"/>
      <point x="852" y="204.5"/>
      <point x="852" y="-66" type="curve" smooth="yes"/>
      <point x="852" y="-324"/>
      <point x="982.5" y="-589"/>
      <point x="1236.5" y="-589" type="curve"/>
    </contour>
  </outline>
</glyph>
<glyph name="asciitilde" format="2">
  <advance width="2818"/>
  <unicode hex="007E"/>
  <outline>
    <contour>
      <point x="835" y="1729" type="curve" smooth="yes"/>
      <point x="617" y="1729"/>
      <point x="434" y="1638"/>
      <point x="434" y="1404" type="curve"/>
      <point x="410" y="1404" type="line"/>
      <point x="410" y="1876"/>
      <point x="655" y="2150"/>
      <point x="1020" y="2150" type="curve" smooth="yes"/>
      <point x="1470" y="2150"/>
      <point x="1532" y="1765"/>
      <point x="1942" y="1765" type="curve" smooth="yes"/>
      <point x="2200" y="1765"/>
      <point x="2384" y="1854"/>
      <point x="2384" y="2088" type="curve"/>
      <point x="2408" y="2088" type="line"/>
      <point x="2408" y="1616"/>
      <point x="2163" y="1344"/>
      <point x="1798" y="1344" type="curve" smooth="yes"/>
      <point x="1278" y="1344"/>
      <point x="1273" y="1729"/>
    </contour>
  </outline>
</glyph>
<glyph name="cent" format="2">
  <advance width="512"/>
  <unicode hex="00A2"/>
  <outline>
    <contour>
      <point x="286" y="555" type="line"/>
      <point x="286" y="-85" type="line"/>
      <point x="281" y="-85" type="line"/>
      <point x="281" y="555" type="line"/>
    </contour>
    <component base="c"/>
  </outline>
</glyph>
<glyph name="sterling" format="2">
  <advance width="656"/>
  <unicode hex="00A3"/>
  <outline>
    <contour>
      <point x="632" y="217" type="line"/>
      <point x="632" y="22"/>
      <point x="561" y="-30"/>
      <point x="447" y="-30" type="curve" smooth="yes"/>
      <point x="310" y="-30"/>
      <point x="250" y="30"/>
      <point x="187" y="30" type="curve" smooth="yes"/>
      <point x="146" y="30"/>
      <point x="89" y="10"/>
      <point x="79" y="-20" type="curve"/>
      <point x="75" y="-20" type="line"/>
      <point x="90" y="54"/>
      <point x="174" y="157"/>
      <point x="272" y="157" type="curve" smooth="yes"/>
      <point x="362" y="157"/>
      <point x="406" y="123"/>
      <point x="472" y="123" type="curve" smooth="yes"/>
      <point x="543" y="123"/>
      <point x="626" y="135"/>
      <point x="626" y="217" type="curve"/>
    </contour>
    <contour>
      <point x="465" y="402" type="line"/>
      <point x="465" y="396" type="line"/>
      <point x="15" y="396" type="line"/>
      <point x="15" y="402" type="line"/>
    </contour>
    <contour>
      <point x="98" y="550" type="curve" smooth="yes"/>
      <point x="98" y="690"/>
      <point x="208" y="760"/>
      <point x="384" y="760" type="curve" smooth="yes"/>
      <point x="546" y="760"/>
      <point x="632" y="666"/>
      <point x="632" y="584" type="curve" smooth="yes"/>
      <point x="632" y="528"/>
      <point x="596" y="489"/>
      <point x="548" y="489" type="curve" smooth="yes"/>
      <point x="503" y="489"/>
      <point x="456" y="520"/>
      <point x="456" y="575" type="curve" smooth="yes"/>
      <point x="456" y="625"/>
      <point x="499" y="660"/>
      <point x="543" y="660" type="curve" smooth="yes"/>
      <point x="583" y="660"/>
      <point x="606" y="634"/>
      <point x="614" y="620" type="curve"/>
      <point x="598" y="682"/>
      <point x="526" y="750"/>
      <point x="406" y="750" type="curve" smooth="yes"/>
      <point x="302" y="750"/>
      <point x="269" y="669"/>
      <point x="269" y="585" type="curve" smooth="yes"/>
      <point x="269" y="486"/>
      <point x="325" y="440"/>
      <point x="325" y="355" type="curve" smooth="yes"/>
      <point x="325" y="170"/>
      <point x="65" y="170"/>
      <point x="78" y="-20" type="curve"/>
      <point x="72" y="-20" type="line"/>
      <point x="53" y="119"/>
      <point x="179" y="197"/>
      <point x="179" y="261" type="curve" smooth="yes"/>
      <point x="179" y="375"/>
      <point x="98" y="435"/>
    </contour>
  </outline>
</glyph>
<glyph name="section" format="2">
  <advance width="1951"/>
  <unicode hex="00A7"/>
  <outline>
    <contour>
      <point x="553" y="2669" type="curve" smooth="yes"/>
      <point x="553" y="2215"/>
      <point x="1792" y="2214"/>
      <point x="1792" y="1588" type="curve" smooth="yes"/>
      <point x="1792" y="1293"/>
      <point x="1562" y="1189"/>
      <point x="1362" y="1063" type="curve"/>
      <point x="1319" y="1076" type="line"/>
      <point x="1413" y="1154"/>
      <point x="1504" y="1203"/>
      <point x="1504" y="1337" type="curve" smooth="yes"/>
      <point x="1504" y="1791"/>
      <point x="274" y="1703"/>
      <point x="274" y="2449" type="curve" smooth="yes"/>
      <point x="274" y="2875"/>
      <point x="632" y="3112"/>
      <point x="1022" y="3112" type="curve" smooth="yes"/>
      <point x="1362" y="3112"/>
      <point x="1775" y="2976"/>
      <point x="1775" y="2542" type="curve" smooth="yes"/>
      <point x="1775" y="2354"/>
      <point x="1652" y="2206"/>
      <point x="1468" y="2206" type="curve" smooth="yes"/>
      <point x="1304" y="2206"/>
      <point x="1186" y="2328"/>
      <point x="1186" y="2496" type="curve" smooth="yes"/>
      <point x="1186" y="2648"/>
      <point x="1320" y="2777"/>
      <point x="1480" y="2777" type="curve" smooth="yes"/>
      <point x="1574" y="2777"/>
      <point x="1651" y="2732"/>
      <point x="1684" y="2695" type="curve"/>
      <point x="1612" y="2931"/>
      <point x="1329" y="3060"/>
      <point x="1022" y="3060" type="curve" smooth="yes"/>
      <point x="787" y="3060"/>
      <point x="553" y="2885"/>
    </contour>
    <contour>
      <point x="1788" y="664" type="curve" smooth="yes"/>
      <point x="1788" y="238"/>
      <point x="1450" y="-40"/>
      <point x="938" y="-40" type="curve" smooth="yes"/>
      <point x="578" y="-40"/>
      <point x="122" y="103"/>
      <point x="122" y="537" type="curve" smooth="yes"/>
      <point x="122" y="725"/>
      <point x="246" y="872"/>
      <point x="430" y="872" type="curve" smooth="yes"/>
      <point x="594" y="872"/>
      <point x="713" y="750"/>
      <point x="713" y="582" type="curve" smooth="yes"/>
      <point x="713" y="430"/>
      <point x="582" y="309"/>
      <point x="422" y="309" type="curve" smooth="yes"/>
      <point x="312" y="309"/>
      <point x="235" y="368"/>
      <point x="213" y="405" type="curve"/>
      <point x="279" y="143"/>
      <point x="614" y="12"/>
      <point x="938" y="12" type="curve" smooth="yes"/>
      <point x="1319" y="12"/>
      <point x="1479" y="238"/>
      <point x="1479" y="414" type="curve" smooth="yes"/>
      <point x="1479" y="868"/>
      <point x="197" y="828"/>
      <point x="197" y="1434" type="curve" smooth="yes"/>
      <point x="197" y="1750"/>
      <point x="438" y="1922"/>
      <point x="598" y="2028" type="curve"/>
      <point x="649" y="2028" type="line"/>
      <point x="600" y="1978"/>
      <point x="510" y="1882"/>
      <point x="510" y="1745" type="curve" smooth="yes"/>
      <point x="510" y="1291"/>
      <point x="1788" y="1410"/>
    </contour>
  </outline>
</glyph>
<glyph name="copyright" format="2">
  <advance width="870"/>
  <unicode hex="00A9"/>
  <outline>
    <contour>
      <point x="50" y="375" type="curve" smooth="yes"/>
      <point x="50" y="588"/>
      <point x="222" y="760"/>
      <point x="435" y="760" type="curve" smooth="yes"/>
      <point x="648" y="760"/>
      <point x="820" y="588"/>
      <point x="820" y="375" type="curve" smooth="yes"/>
      <point x="820" y="162"/>
      <point x="648" y="-10"/>
      <point x="435" y="-10" type="curve" smooth="yes"/>
      <point x="222" y="-10"/>
      <point x="50" y="162"/>
    </contour>
    <contour>
      <point x="56" y="375" type="curve" smooth="yes"/>
      <point x="56" y="166"/>
      <point x="226" y="-4"/>
      <point x="435" y="-4" type="curve" smooth="yes"/>
      <point x="644" y="-4"/>
      <point x="814" y="166"/>
      <point x="814" y="375" type="curve" smooth="yes"/>
      <point x="814" y="584"/>
      <point x="644" y="754"/>
      <point x="435" y="754" type="curve" smooth="yes"/>
      <point x="226" y="754"/>
      <point x="56" y="584"/>
    </contour>
    <component base="C" xScale="0.6" yScale="0.6" xOffset="202" yOffset="150"/>
  </outline>
</glyph>
<glyph name="guillemotleft" format="2">
  <advance width="725"/>
  <unicode hex="00AB"/>
  <outline>
    <contour>
      <point x="491" y="388" type="line"/>
      <point x="668" y="148" type="line"/>
      <point x="665" y="145" type="line"/>
      <point x="305" y="379" type="line"/>
      <point x="305" y="396" type="line"/>
      <point x="665" y="630" type="line"/>
      <point x="668" y="627" type="line"/>
    </contour>
    <contour>
      <point x="201" y="388" type="line"/>
      <point x="388" y="148" type="line"/>
      <point x="385" y="145" type="line"/>
      <point x="25" y="379" type="line"/>
      <point x="25" y="396" type="line"/>
      <point x="385" y="630" type="line"/>
      <point x="388" y="627" type="line"/>
    </contour>
  </outline>
</glyph>
<glyph name="degree" format="2">
  <advance width="320"/>
  <unicode hex="00B0"/>
  <outline>
    <contour>
      <point x="40" y="680" type="curve" smooth="yes"/>
      <point x="40" y="746"/>
      <point x="94" y="800"/>
      <point x="160" y="800" type="curve" smooth="yes"/>
      <point x="226" y="800"/>
      <point x="280" y="746"/>
      <point x="280" y="680" type="curve" smooth="yes"/>
      <point x="280" y="614"/>
      <point x="226" y="560"/>
      <point x="160" y="560" type="curve" smooth="yes"/>
      <point x="94" y="560"/>
      <point x="40" y="614"/>
    </contour>
    <contour>
      <point x="68" y="680" type="curve" smooth="yes"/>
      <point x="68" y="627"/>
      <point x="107" y="588"/>
      <point x="160" y="588" type="curve" smooth="yes"/>
      <point x="213" y="588"/>
      <point x="252" y="627"/>
      <point x="252" y="680" type="curve" smooth="yes"/>
      <point x="252" y="733"/>
      <point x="213" y="772"/>
      <point x="160" y="772" type="curve" smooth="yes"/>
      <point x="107" y="772"/>
      <point x="68" y="733"/>
    </contour>
  </outline>
</glyph>
<glyph name="acute" format="2">
  <advance width="1678"/>
  <unicode hex="00B4"/>
  <outline>
    <contour>
      <point x="1188" y="2868" type="curve" smooth="yes"/>
      <point x="246" y="2958" type="line"/>
      <point x="236" y="2982" type="line"/>
      <point x="1147" y="3310" type="line" smooth="yes"/>
      <point x="1307" y="3370"/>
      <point x="1454" y="3231"/>
      <point x="1454" y="3092" type="curve" smooth="yes"/>
      <point x="1454" y="2953"/>
      <point x="1327" y="2850"/>
    </contour>
  </outline>
</glyph>
<glyph name="mu" format="2">
  <advance width="4648"/>
  <unicode hex="00B5"/>
  <outline>
    <contour>
      <point x="2032" y="-984" type="curve" smooth="yes"/>
      <point x="2296" y="-984"/>
      <point x="2512" y="-1216"/>
      <point x="2512" y="-1520" type="curve" smooth="yes"/>
      <point x="2512" y="-1832"/>
      <point x="2344" y="-2080"/>
      <point x="1760" y="-2080" type="curve" smooth="yes"/>
      <point x="1200" y="-2080"/>
      <point x="720" y="-1688"/>
      <point x="720" y="-968" type="curve" smooth="yes"/>
      <point x="720" y="2568" type="line"/>
      <point x="760" y="2568" type="line"/>
      <point x="760" y="-968" type="line" smooth="yes"/>
      <point x="760" y="-1664"/>
      <point x="1224" y="-2088"/>
      <point x="1896" y="-2024" type="curve"/>
      <point x="1896" y="-2024" type="line"/>
      <point x="1696" y="-1936"/>
      <point x="1560" y="-1744"/>
      <point x="1560" y="-1472" type="curve" smooth="yes"/>
      <point x="1560" y="-1208"/>
      <point x="1768" y="-984"/>
    </contour>
    <component base="u"/>
  </outline>
</glyph>
<glyph name="cedilla" format="2">
  <advance width="2252"/>
  <unicode hex="00B8"/>
  <outline>
    <contour>
      <point x="1266" y="-574" type="curve" smooth="yes"/>
      <point x="1266" y="-356"/>
      <point x="1093" y="-324"/>
      <point x="888" y="-324" type="curve"/>
      <point x="1258" y="168" type="line"/>
      <point x="1294" y="168" type="line"/>
      <point x="1048" y="-160" type="line"/>
      <point x="1438" y="-172"/>
      <point x="1720" y="-262"/>
      <point x="1720" y="-492" type="curve" smooth="yes"/>
      <point x="1720" y="-696"/>
      <point x="1524" y="-873"/>
      <point x="905" y="-873" type="curve"/>
      <point x="905" y="-848" type="line"/>
      <point x="1147" y="-848"/>
      <point x="1266" y="-730"/>
    </contour>
  </outline>
</glyph>
<glyph name="threequarters" format="2">
  <advance width="2993"/>
  <unicode hex="00BE"/>
  <outline>
    <contour>
      <point x="2386" y="2662" type="line"/>
      <point x="2411" y="2662" type="line"/>
      <point x="433.5" y="-410" type="line"/>
      <point x="408.5" y="-410" type="line"/>
    </contour>
    <component base="three" xScale="0.6" yScale="0.6" xOffset="20" yOffset="1450"/>
    <component base="four" xScale="0.6" yScale="0.6" xOffset="1352" yOffset="-422"/>
  </outline>
</glyph>
<glyph name="AE" format="2">
  <advance width="8360"/>
  <unicode hex="00C6"/>
  <outline>
    <contour>
      <point x="4200" y="6000" type="line"/>
      <point x="4256" y="6000" type="line"/>
      <point x="888" y="0" type="line"/>
      <point x="816" y="0" type="line"/>
    </contour>
    <contour>
      <point x="120" y="48" type="line"/>
      <point x="1880" y="48" type="line"/>
      <point x="1880" y="0" type="line"/>
      <point x="120" y="0" type="line"/>
    </contour>
    <contour>
      <point x="1968" y="1984" type="line"/>
      <point x="4280" y="1984" type="line"/>
      <point x="4280" y="1936" type="line"/>
      <point x="1968" y="1936" type="line"/>
    </contour>
    <contour>
      <point x="4200" y="6000" type="line"/>
      <point x="5440" y="6000" type="line"/>
      <point x="5440" y="0" type="line"/>
      <point x="4200" y="0" type="line"/>
    </contour>
    <contour>
      <point x="4200" y="6000" type="line"/>
      <point x="8040" y="6000" type="line"/>
      <point x="8040" y="4360" type="line"/>
      <point x="7992" y="4360" type="line"/>
      <point x="7872" y="5216"/>
      <point x="7296" y="5952"/>
      <point x="6400" y="5952" type="curve" smooth="yes"/>
      <point x="4200" y="5952" type="line"/>
    </contour>
    <contour>
      <point x="8120" y="0" type="line"/>
      <point x="3480" y="0" type="line"/>
      <point x="3480" y="48" type="line"/>
      <point x="6320" y="48" type="line" smooth="yes"/>
      <point x="7376" y="48"/>
      <point x="7952" y="784"/>
      <point x="8072" y="1800" type="curve"/>
      <point x="8120" y="1800" type="line"/>
    </contour>
    <contour>
      <point x="6752" y="2104" type="line"/>
      <point x="6632" y="2640"/>
      <point x="6176" y="3080"/>
      <point x="5720" y="3080" type="curve" smooth="yes"/>
      <point x="5240" y="3080" type="line"/>
      <point x="5240" y="3128" type="line"/>
      <point x="5720" y="3128" type="line" smooth="yes"/>
      <point x="6176" y="3128"/>
      <point x="6632" y="3528"/>
      <point x="6752" y="4064" type="curve"/>
      <point x="6800" y="4064" type="line"/>
      <point x="6800" y="2104" type="line"/>
    </contour>
  </outline>
</glyph>
<glyph name="germandbls" format="2">
  <advance width="3157"/>
  <unicode hex="00DF"/>
  <outline>
    <contour>
      <point x="1650.5" y="1653" type="curve"/>
      <point x="1650.5" y="1671" type="line"/>
      <point x="2096.5" y="1671"/>
      <point x="2211.5" y="2076.5"/>
      <point x="2211.5" y="2338.5" type="curve" smooth="yes"/>
      <point x="2211.5" y="2633"/>
      <point x="2098" y="3087"/>
      <point x="1692" y="3087" type="curve" smooth="yes"/>
      <point x="1184.5" y="3087"/>
      <point x="1044.5" y="2552"/>
      <point x="1044.5" y="1970" type="curve" smooth="yes"/>
      <point x="1044.5" y="0" type="line"/>
      <point x="430" y="0" type="line"/>
      <point x="430" y="2011.5" type="line" smooth="yes"/>
      <point x="430" y="2761"/>
      <point x="1044" y="3112.5"/>
      <point x="1712" y="3112.5" type="curve" smooth="yes"/>
      <point x="2298" y="3112.5"/>
      <point x="2871.5" y="2822.5"/>
      <point x="2871.5" y="2380" type="curve" smooth="yes"/>
      <point x="2871.5" y="1929"/>
      <point x="2474" y="1653"/>
    </contour>
    <contour>
      <point x="61.5" y="25" type="line"/>
      <point x="1408.5" y="25" type="line"/>
      <point x="1408.5" y="0" type="line"/>
      <point x="61.5" y="0" type="line"/>
    </contour>
    <contour>
      <point x="2994" y="716.5" type="curve" smooth="yes"/>
      <point x="2994" y="224.5"/>
      <point x="2527.5" y="-40.5"/>
      <point x="2031.5" y="-40.5" type="curve" smooth="yes"/>
      <point x="1659" y="-40.5"/>
      <point x="1384.5" y="221"/>
      <point x="1384.5" y="638.5" type="curve" smooth="yes"/>
      <point x="1384.5" y="867.5"/>
      <point x="1556" y="986.5"/>
      <point x="1740.5" y="986.5" type="curve" smooth="yes"/>
      <point x="1904" y="986.5"/>
      <point x="2064" y="884.5"/>
      <point x="2064" y="676" type="curve" smooth="yes"/>
      <point x="2064" y="483.5"/>
      <point x="1888" y="368.5"/>
      <point x="1728.5" y="368.5" type="curve" smooth="yes"/>
      <point x="1576" y="368.5"/>
      <point x="1444.5" y="468.5"/>
      <point x="1416.5" y="596" type="curve"/>
      <point x="1430" y="225"/>
      <point x="1689" y="-5"/>
      <point x="1970.5" y="-5" type="curve" smooth="yes"/>
      <point x="2273.5" y="-5"/>
      <point x="2335" y="393.5"/>
      <point x="2335" y="655.5" type="curve" smooth="yes"/>
      <point x="2335" y="1041"/>
      <point x="2260.5" y="1647"/>
      <point x="1650.5" y="1647" type="curve"/>
      <point x="1650.5" y="1664" type="line"/>
      <point x="2638" y="1664"/>
      <point x="2994" y="1248.5"/>
    </contour>
  </outline>
</glyph>
<glyph name="ae" format="2">
  <advance width="3411"/>
  <unicode hex="00E6"/>
  <outline>
    <contour>
      <point x="286" y="1478" type="curve" smooth="yes"/>
      <point x="286" y="1742"/>
      <point x="643" y="1916"/>
      <point x="1057" y="1916" type="curve" smooth="yes"/>
      <point x="1589" y="1916"/>
      <point x="1806" y="1623"/>
      <point x="1806" y="1250" type="curve"/>
      <point x="1786" y="742" type="line"/>
      <point x="1786" y="234"/>
      <point x="1378" y="-40"/>
      <point x="902" y="-40" type="curve" smooth="yes"/>
      <point x="455" y="-40"/>
      <point x="144" y="118"/>
      <point x="144" y="462" type="curve" smooth="yes"/>
      <point x="144" y="806"/>
      <point x="458" y="1055"/>
      <point x="1040" y="1055" type="curve" smooth="yes"/>
      <point x="1671" y="1055" type="line"/>
      <point x="1671" y="1030" type="line"/>
      <point x="1184" y="1030" type="line" smooth="yes"/>
      <point x="934" y="1030"/>
      <point x="766" y="788"/>
      <point x="766" y="493" type="curve" smooth="yes"/>
      <point x="766" y="219"/>
      <point x="858" y="-8"/>
      <point x="1022" y="-8" type="curve" smooth="yes"/>
      <point x="1194" y="-8"/>
      <point x="1335" y="265"/>
      <point x="1335" y="638" type="curve" smooth="yes"/>
      <point x="1335" y="1250" type="line" smooth="yes"/>
      <point x="1335" y="1524"/>
      <point x="1276" y="1882"/>
      <point x="948" y="1882" type="curve" smooth="yes"/>
      <point x="749" y="1882"/>
      <point x="545" y="1802"/>
      <point x="453" y="1710" type="curve"/>
      <point x="713" y="1825"/>
      <point x="946" y="1678"/>
      <point x="946" y="1486" type="curve" smooth="yes"/>
      <point x="946" y="1302"/>
      <point x="766" y="1192"/>
      <point x="602" y="1192" type="curve" smooth="yes"/>
      <point x="418" y="1192"/>
      <point x="286" y="1310"/>
    </contour>
    <contour>
      <point x="2698" y="1066" type="line"/>
      <point x="2694" y="1435"/>
      <point x="2668" y="1900"/>
      <point x="2406" y="1900" type="curve" smooth="yes"/>
      <point x="2123" y="1900"/>
      <point x="2048" y="1449"/>
      <point x="2048" y="983" type="curve" smooth="yes"/>
      <point x="2048" y="517"/>
      <point x="2130" y="0"/>
      <point x="2519" y="0" type="curve" smooth="yes"/>
      <point x="2909" y="0"/>
      <point x="3183" y="248"/>
      <point x="3285" y="586" type="curve"/>
      <point x="3310" y="586" type="line"/>
      <point x="3204" y="230"/>
      <point x="2914" y="-40"/>
      <point x="2418" y="-40" type="curve" smooth="yes"/>
      <point x="1902" y="-40"/>
      <point x="1536" y="307"/>
      <point x="1536" y="942" type="curve" smooth="yes"/>
      <point x="1536" y="1577"/>
      <point x="1890" y="1926"/>
      <point x="2406" y="1926" type="curve" smooth="yes"/>
      <point x="3016" y="1926"/>
      <point x="3306" y="1486"/>
      <point x="3306" y="1040" type="curve"/>
      <point x="1822" y="1040" type="line"/>
      <point x="1822" y="1066" type="line"/>
    </contour>
  </outline>
</glyph>
<glyph name="eth" format="2">
  <advance width="4880"/>
  <unicode hex="00F0"/>
  <outline>
    <contour>
      <point x="1040" y="5040" type="line"/>
      <point x="4600" y="5040" type="line"/>
      <point x="4600" y="4992" type="line"/>
      <point x="1040" y="4992" type="line"/>
    </contour>
    <contour>
      <point x="4480" y="2480" type="curve" smooth="yes"/>
      <point x="4480" y="800"/>
      <point x="3616" y="-80"/>
      <point x="2328" y="-80" type="curve" smooth="yes"/>
      <point x="1040" y="-80"/>
      <point x="240" y="800"/>
      <point x="240" y="2000" type="curve" smooth="yes"/>
      <point x="240" y="3360"/>
      <point x="1224" y="3936"/>
      <point x="2112" y="3936" type="curve" smooth="yes"/>
      <point x="2984" y="3936"/>
      <point x="3200" y="3216"/>
      <point x="3200" y="2240" type="curve"/>
      <point x="3160" y="2240" type="line"/>
      <point x="3160" y="3288"/>
      <point x="2864" y="3824"/>
      <point x="2336" y="3824" type="curve" smooth="yes"/>
      <point x="1824" y="3824"/>
      <point x="1560" y="3272"/>
      <point x="1560" y="2000" type="curve" smooth="yes"/>
      <point x="1560" y="888"/>
      <point x="1672" y="-32"/>
      <point x="2304" y="-32" type="curve" smooth="yes"/>
      <point x="2936" y="-32"/>
      <point x="3160" y="968"/>
      <point x="3160" y="2240" type="curve"/>
      <point x="3168" y="2672" type="line"/>
      <point x="3168" y="4144"/>
      <point x="2272" y="6048"/>
      <point x="840" y="6048" type="curve"/>
      <point x="840" y="6080" type="line"/>
      <point x="2904" y="6080"/>
      <point x="4480" y="4496"/>
    </contour>
  </outline>
</glyph>
<glyph name="thorn" format="2">
  <advance width="4984"/>
  <unicode hex="00FE"/>
  <outline>
    <contour>
      <point x="1760" y="1840" type="curve" smooth="yes"/>
      <point x="1760" y="3056"/>
      <point x="2216" y="3752"/>
      <point x="3048" y="3752" type="curve" smooth="yes"/>
      <point x="3920" y="3752"/>
      <point x="4744" y="3040"/>
      <point x="4744" y="1840" type="curve" smooth="yes"/>
      <point x="4744" y="640"/>
      <point x="3920" y="-80"/>
      <point x="3048" y="-80" type="curve" smooth="yes"/>
      <point x="2216" y="-80"/>
      <point x="1760" y="624"/>
    </contour>
    <contour>
      <point x="1800" y="1840" type="curve" smooth="yes"/>
      <point x="1800" y="624"/>
      <point x="2312" y="48"/>
      <point x="2792" y="48" type="curve" smooth="yes"/>
      <point x="3272" y="48"/>
      <point x="3464" y="704"/>
      <point x="3464" y="1840" type="curve" smooth="yes"/>
      <point x="3464" y="2976"/>
      <point x="3280" y="3624"/>
      <point x="2800" y="3624" type="curve" smooth="yes"/>
      <point x="2312" y="3624"/>
      <point x="1800" y="3056"/>
    </contour>
    <contour>
      <point x="120" y="-1952" type="line"/>
      <point x="2360" y="-1952" type="line"/>
      <point x="2360" y="-2000" type="line"/>
      <point x="120" y="-2000" type="line"/>
    </contour>
    <contour>
      <point x="680" y="5952" type="line"/>
      <point x="120" y="5952" type="line"/>
      <point x="120" y="6000" type="line"/>
      <point x="1800" y="6000" type="line"/>
      <point x="1800" y="-2000" type="line"/>
      <point x="680" y="-2000" type="line"/>
    </contour>
  </outline>
</glyph>
<glyph name="Dcroat" format="2">
  <advance width="3102"/>
  <unicode hex="0110"/>
  <outline>
    <contour>
      <point x="440" y="3072" type="line"/>
      <point x="1075" y="3072" type="line"/>
      <point x="1075" y="0" type="line"/>
      <point x="440" y="0" type="line"/>
    </contour>
    <contour>
      <point x="1382" y="0" type="curve" smooth="yes"/>
      <point x="72" y="0" type="line"/>
      <point x="72" y="24" type="line"/>
      <point x="1382" y="24" type="line" smooth="yes"/>
      <point x="2013" y="24"/>
      <point x="2222" y="730"/>
      <point x="2222" y="1536" type="curve" smooth="yes"/>
      <point x="2222" y="2342"/>
      <point x="1972" y="3048"/>
      <point x="1382" y="3048" type="curve" smooth="yes"/>
      <point x="72" y="3048" type="line"/>
      <point x="72" y="3072" type="line"/>
      <point x="1382" y="3072" type="line" smooth="yes"/>
      <point x="2356" y="3072"/>
      <point x="2938" y="2449"/>
      <point x="2938" y="1536" type="curve" smooth="yes"/>
      <point x="2938" y="623"/>
      <point x="2316" y="0"/>
    </contour>
    <contour>
      <point x="73" y="1507" type="line"/>
      <point x="1494" y="1507" type="line"/>
      <point x="1494" y="1482" type="line"/>
      <point x="73" y="1482" type="line"/>
    </contour>
  </outline>
</glyph>
<glyph name="dotlessi" format="2">
  <advance width="320"/>
  <unicode hex="0131"/>
  <outline>
    <contour>
      <point x="20" y="6" type="line"/>
      <point x="300" y="6" type="line"/>
      <point x="300" y="0" type="line"/>
      <point x="20" y="0" type="line"/>
    </contour>
    <contour>
      <point x="90" y="454" type="line"/>
      <point x="20" y="454" type="line"/>
      <point x="20" y="460" type="line"/>
      <point x="230" y="460" type="line"/>
      <point x="230" y="0" type="line"/>
      <point x="90" y="0" type="line"/>
    </contour>
  </outline>
</glyph>
<glyph name="kgreenlandic" format="2">
  <advance width="5160"/>
  <unicode hex="0138"/>
  <outline>
    <contour>
      <point x="4736" y="0" type="line"/>
      <point x="3352" y="0" type="line"/>
      <point x="1768" y="2128" type="line"/>
      <point x="3944" y="3680" type="line"/>
      <point x="4016" y="3680" type="line"/>
      <point x="2656" y="2680" type="line"/>
    </contour>
    <contour>
      <point x="2784" y="48" type="line"/>
      <point x="5040" y="48" type="line"/>
      <point x="5040" y="0" type="line"/>
      <point x="2784" y="0" type="line"/>
    </contour>
    <contour>
      <point x="4648" y="3632" type="line"/>
      <point x="2864" y="3632" type="line"/>
      <point x="2864" y="3680" type="line"/>
      <point x="4648" y="3680" type="line"/>
    </contour>
    <contour>
      <point x="152" y="48" type="line"/>
      <point x="2432" y="48" type="line"/>
      <point x="2432" y="0" type="line"/>
      <point x="152" y="0" type="line"/>
    </contour>
    <contour>
      <point x="872" y="3632" type="line"/>
      <point x="152" y="3632" type="line"/>
      <point x="152" y="3680" type="line"/>
      <point x="1992" y="3680" type="line"/>
      <point x="1992" y="0" type="line"/>
      <point x="872" y="0" type="line"/>
    </contour>
  </outline>
</glyph>
<glyph name="lslash" format="2">
  <advance width="343"/>
  <unicode hex="0142"/>
  <outline>
    <contour>
      <point x="11" y="380" type="line"/>
      <point x="346" y="580" type="line"/>
      <point x="346" y="572" type="line"/>
      <point x="11" y="372" type="line"/>
    </contour>
    <component base="l"/>
  </outline>
</glyph>
<glyph name="OE" format="2">
  <advance width="992"/>
  <unicode hex="0152"/>
  <anchor x="402" y="744"/>
  <outline>
    <contour>
      <point x="215" y="375" type="curve" smooth="yes"/>
      <point x="215" y="178"/>
      <point x="263" y="6"/>
      <point x="402" y="6" type="curve"/>
      <point x="382" y="0" type="line"/>
      <point x="179" y="0"/>
      <point x="40" y="152"/>
      <point x="40" y="375" type="curve" smooth="yes"/>
      <point x="40" y="598"/>
      <point x="179" y="750"/>
      <point x="382" y="750" type="curve"/>
      <point x="402" y="744" type="line"/>
      <point x="263" y="744"/>
      <point x="215" y="572"/>
    </contour>
    <component base="E" xOffset="365"/>
  </outline>
</glyph>
<glyph name="uni0237" format="2">
  <advance width="324"/>
  <unicode hex="0237"/>
  <outline>
    <contour>
      <point x="249" y="460" type="line"/>
      <point x="249" y="-12" type="line" smooth="yes"/>
      <point x="249" y="-143"/>
      <point x="172" y="-260"/>
      <point x="32" y="-260" type="curve" smooth="yes"/>
      <point x="-59" y="-260"/>
      <point x="-121" y="-207"/>
      <point x="-121" y="-141" type="curve" smooth="yes"/>
      <point x="-121" y="-90"/>
      <point x="-83" y="-59"/>
      <point x="-39" y="-59" type="curve" smooth="yes"/>
      <point x="1" y="-59"/>
      <point x="42" y="-83"/>
      <point x="42" y="-133" type="curve" smooth="yes"/>
      <point x="42" y="-181"/>
      <point x="8" y="-209"/>
      <point x="-44" y="-209" type="curve" smooth="yes"/>
      <point x="-78" y="-209"/>
      <point x="-101" y="-187"/>
      <point x="-105" y="-163" type="curve"/>
      <point x="-102" y="-207"/>
      <point x="-50" y="-252"/>
      <point x="20" y="-252" type="curve" smooth="yes"/>
      <point x="125" y="-252"/>
      <point x="107" y="-106"/>
      <point x="107" y="21" type="curve" smooth="yes"/>
      <point x="109" y="454" type="line"/>
      <point x="19" y="454" type="line"/>
      <point x="19" y="460" type="line"/>
    </contour>
  </outline>
</glyph>
<glyph name="circumflex" format="2">
  <advance width="1740"/>
  <unicode hex="02C6"/>
  <outline>
    <contour>
      <point x="868" y="2867" type="line"/>
      <point x="218" y="2586" type="line"/>
      <point x="204" y="2600" type="line"/>
      <point x="696" y="3154" type="line"/>
      <point x="1045" y="3154" type="line"/>
      <point x="1536" y="2600" type="line"/>
      <point x="1524" y="2586" type="line"/>
    </contour>
  </outline>
</glyph>
<glyph name="caron" format="2">
  <advance width="3400"/>
  <unicode hex="02C7"/>
  <outline>
    <contour>
      <point x="1696" y="5720" type="line"/>
      <point x="2976" y="6264" type="line"/>
      <point x="3000" y="6240" type="line"/>
      <point x="2040" y="5160" type="line"/>
      <point x="1360" y="5160" type="line"/>
      <point x="400" y="6240" type="line"/>
      <point x="432" y="6264" type="line"/>
    </contour>
  </outline>
</glyph>
<glyph name="breve" format="2">
  <advance width="1228"/>
  <unicode hex="02D8"/>
  <outline>
    <contour>
      <point x="145" y="3108.5" type="line"/>
      <point x="145" y="2918"/>
      <point x="393" y="2847"/>
      <point x="614.5" y="2847" type="curve" smooth="yes"/>
      <point x="836" y="2847"/>
      <point x="1085" y="2918"/>
      <point x="1085" y="3108.5" type="curve"/>
      <point x="1106" y="3108.5" type="line"/>
      <point x="1106" y="2715.5"/>
      <point x="963" y="2457"/>
      <point x="614.5" y="2457" type="curve" smooth="yes"/>
      <point x="266" y="2457"/>
      <point x="122.5" y="2715.5"/>
      <point x="122.5" y="3108.5" type="curve"/>
    </contour>
  </outline>
</glyph>
<glyph name="ring" format="2">
  <advance width="320"/>
  <unicode hex="02DA"/>
  <outline>
    <contour>
      <point x="60" y="680" type="curve" smooth="yes"/>
      <point x="60" y="731"/>
      <point x="99" y="770"/>
      <point x="160" y="770" type="curve" smooth="yes"/>
      <point x="221" y="770"/>
      <point x="260" y="731"/>
      <point x="260" y="680" type="curve" smooth="yes"/>
      <point x="260" y="629"/>
      <point x="221" y="590"/>
      <point x="160" y="590" type="curve" smooth="yes"/>
      <point x="99" y="590"/>
      <point x="60" y="629"/>
    </contour>
    <contour>
      <point x="120" y="680" type="curve" smooth="yes"/>
      <point x="120" y="629"/>
      <point x="129" y="596"/>
      <point x="160" y="596" type="curve" smooth="yes"/>
      <point x="191" y="596"/>
      <point x="200" y="629"/>
      <point x="200" y="680" type="curve" smooth="yes"/>
      <point x="200" y="731"/>
      <point x="191" y="764"/>
      <point x="160" y="764" type="curve" smooth="yes"/>
      <point x="129" y="764"/>
      <point x="120" y="731"/>
    </contour>
  </outline>
</glyph>
<glyph name="ogonek" format="2">
  <advance width="2252"/>
  <unicode hex="02DB"/>
  <outline>
    <contour>
      <point x="1640" y="-504" type="line"/>
      <point x="1578" y="-618"/>
      <point x="1480" y="-803"/>
      <point x="1128" y="-803" type="curve" smooth="yes"/>
      <point x="858" y="-803"/>
      <point x="625" y="-697"/>
      <point x="625" y="-451" type="curve" smooth="yes"/>
      <point x="625" y="-123"/>
      <point x="1027" y="84"/>
      <point x="1338" y="176" type="curve"/>
      <point x="1348" y="160" type="line"/>
      <point x="1262" y="111"/>
      <point x="1170" y="-74"/>
      <point x="1170" y="-340" type="curve" smooth="yes"/>
      <point x="1170" y="-569"/>
      <point x="1260" y="-700"/>
      <point x="1378" y="-700" type="curve" smooth="yes"/>
      <point x="1494" y="-700"/>
      <point x="1560" y="-610"/>
      <point x="1624" y="-496" type="curve"/>
    </contour>
  </outline>
</glyph>
<glyph name="tilde" format="2">
  <advance width="1834"/>
  <unicode hex="02DC"/>
  <outline>
    <contour>
      <point x="487" y="2679" type="curve" smooth="yes"/>
      <point x="339" y="2679"/>
      <point x="230" y="2589"/>
      <point x="230" y="2437" type="curve"/>
      <point x="204" y="2437" type="line"/>
      <point x="204" y="2785"/>
      <point x="348" y="3039"/>
      <point x="610" y="3039" type="curve" smooth="yes"/>
      <point x="938" y="3039"/>
      <point x="1082" y="2716"/>
      <point x="1348" y="2716" type="curve" smooth="yes"/>
      <point x="1512" y="2716"/>
      <point x="1606" y="2806"/>
      <point x="1606" y="2958" type="curve"/>
      <point x="1630" y="2958" type="line"/>
      <point x="1630" y="2568"/>
      <point x="1569" y="2356"/>
      <point x="1266" y="2356" type="curve" smooth="yes"/>
      <point x="951" y="2356"/>
      <point x="782" y="2679"/>
    </contour>
  </outline>
</glyph>
<glyph name="pi" format="2">
  <advance width="5048"/>
  <unicode hex="03C0"/>
  <outline>
    <contour>
      <point x="4768" y="824" type="line"/>
      <point x="4584" y="264"/>
      <point x="4280" y="-80"/>
      <point x="3704" y="-80" type="curve" smooth="yes"/>
      <point x="3168" y="-80"/>
      <point x="2768" y="152"/>
      <point x="2768" y="664" type="curve" smooth="yes"/>
      <point x="2768" y="3360" type="line"/>
      <point x="3888" y="3360" type="line"/>
      <point x="3888" y="640" type="line" smooth="yes"/>
      <point x="3888" y="480"/>
      <point x="3968" y="336"/>
      <point x="4192" y="336" type="curve" smooth="yes"/>
      <point x="4384" y="336"/>
      <point x="4576" y="472"/>
      <point x="4736" y="848" type="curve"/>
    </contour>
    <contour>
      <point x="992" y="-80" type="curve" smooth="yes"/>
      <point x="584" y="-80"/>
      <point x="320" y="144"/>
      <point x="320" y="464" type="curve" smooth="yes"/>
      <point x="320" y="1208"/>
      <point x="1576" y="856"/>
      <point x="1576" y="2232" type="curve" smooth="yes"/>
      <point x="1576" y="3600" type="line"/>
      <point x="2024" y="3600" type="line"/>
      <point x="2024" y="1944" type="line" smooth="yes"/>
      <point x="2024" y="680"/>
      <point x="1656" y="-80"/>
    </contour>
    <contour>
      <point x="4608" y="3680" type="line"/>
      <point x="4608" y="2560" type="line"/>
      <point x="376" y="2560" type="line"/>
      <point x="376" y="1960" type="line"/>
      <point x="328" y="1960" type="line"/>
      <point x="328" y="3680" type="line"/>
    </contour>
  </outline>
</glyph>
<glyph name="uni1E9E" format="2">
  <advance width="3649"/>
  <unicode hex="1E9E"/>
  <outline>
    <contour>
      <point x="62" y="24" type="line"/>
      <point x="1454" y="24" type="line"/>
      <point x="1454" y="0" type="line"/>
      <point x="62" y="0" type="line"/>
    </contour>
    <contour>
      <point x="2509" y="1624" type="line"/>
      <point x="2331" y="1649"/>
      <point x="2059" y="1693"/>
      <point x="1876" y="1700" type="curve"/>
      <point x="2876" y="2943" type="line"/>
      <point x="2748" y="3002"/>
      <point x="2486" y="3086"/>
      <point x="2162" y="3086" type="curve" smooth="yes"/>
      <point x="1368" y="3086"/>
      <point x="1086" y="2532"/>
      <point x="1086" y="1766" type="curve" smooth="yes"/>
      <point x="1086" y="0" type="line"/>
      <point x="430" y="0" type="line"/>
      <point x="430" y="1806" type="line" smooth="yes"/>
      <point x="430" y="2678"/>
      <point x="1188" y="3112"/>
      <point x="2162" y="3112" type="curve" smooth="yes"/>
      <point x="2788" y="3112"/>
      <point x="3219" y="2842"/>
      <point x="3363" y="2686" type="curve"/>
    </contour>
    <contour>
      <point x="1458" y="563" type="curve"/>
      <point x="1499" y="274"/>
      <point x="1800" y="4"/>
      <point x="2236" y="4" type="curve" smooth="yes"/>
      <point x="2672" y="4"/>
      <point x="2816" y="373"/>
      <point x="2816" y="819" type="curve" smooth="yes"/>
      <point x="2816" y="1183"/>
      <point x="2670" y="1676"/>
      <point x="1876" y="1676" type="curve"/>
      <point x="1876" y="1700" type="line"/>
      <point x="3129" y="1700"/>
      <point x="3486" y="1321"/>
      <point x="3486" y="829" type="curve" smooth="yes"/>
      <point x="3486" y="276"/>
      <point x="2979" y="-40"/>
      <point x="2360" y="-40" type="curve" smooth="yes"/>
      <point x="1717" y="-40"/>
      <point x="1412" y="324"/>
      <point x="1412" y="660" type="curve" smooth="yes"/>
      <point x="1412" y="889"/>
      <point x="1568" y="1038"/>
      <point x="1772" y="1038" type="curve" smooth="yes"/>
      <point x="1956" y="1038"/>
      <point x="2095" y="906"/>
      <point x="2095" y="698" type="curve" smooth="yes"/>
      <point x="2095" y="506"/>
      <point x="1930" y="368"/>
      <point x="1750" y="368" type="curve" smooth="yes"/>
      <point x="1605" y="368"/>
      <point x="1493" y="475"/>
    </contour>
  </outline>
</glyph>
<glyph name="uni2010" format="2">
  <advance width="360"/>
  <unicode hex="2010"/>
  <outline>
    <contour>
      <point x="60" y="278" type="line"/>
      <point x="300" y="278" type="line"/>
      <point x="300" y="272" type="line"/>
      <point x="60" y="272" type="line"/>
    </contour>
  </outline>
</glyph>
<glyph name="uni2031" format="2">
  <advance width="8211"/>
  <unicode hex="2031"/>
  <outline>
    <contour>
      <point x="6902" y="860" type="curve" smooth="yes"/>
      <point x="6902" y="304"/>
      <point x="6967.5" y="-19"/>
      <point x="7168" y="-19" type="curve" smooth="yes"/>
      <point x="7368.5" y="-19"/>
      <point x="7434.5" y="304"/>
      <point x="7434.5" y="860" type="curve" smooth="yes"/>
      <point x="7434.5" y="1416"/>
      <point x="7368.5" y="1741"/>
      <point x="7168" y="1741" type="curve" smooth="yes"/>
      <point x="6967.5" y="1741"/>
      <point x="6902" y="1416"/>
    </contour>
    <contour>
      <point x="6266.5" y="860" type="curve" smooth="yes"/>
      <point x="6266.5" y="1446"/>
      <point x="6705.5" y="1761.5"/>
      <point x="7168" y="1761.5" type="curve" smooth="yes"/>
      <point x="7630.5" y="1761.5"/>
      <point x="8069" y="1446"/>
      <point x="8069" y="860" type="curve" smooth="yes"/>
      <point x="8069" y="274"/>
      <point x="7548.5" y="-40.5"/>
      <point x="7168" y="-40.5" type="curve" smooth="yes"/>
      <point x="6705.5" y="-40.5"/>
      <point x="6266.5" y="274"/>
    </contour>
    <contour>
      <point x="4874" y="860" type="curve" smooth="yes"/>
      <point x="4874" y="304"/>
      <point x="4939.5" y="-19"/>
      <point x="5140" y="-19" type="curve" smooth="yes"/>
      <point x="5340.5" y="-19"/>
      <point x="5406.5" y="304"/>
      <point x="5406.5" y="860" type="curve" smooth="yes"/>
      <point x="5406.5" y="1416"/>
      <point x="5340.5" y="1741"/>
      <point x="5140" y="1741" type="curve" smooth="yes"/>
      <point x="4939.5" y="1741"/>
      <point x="4874" y="1416"/>
    </contour>
    <contour>
      <point x="4239.5" y="860" type="curve" smooth="yes"/>
      <point x="4239.5" y="1446"/>
      <point x="4677.5" y="1761.5"/>
      <point x="5140" y="1761.5" type="curve" smooth="yes"/>
      <point x="5602.5" y="1761.5"/>
      <point x="6042" y="1446"/>
      <point x="6042" y="860" type="curve" smooth="yes"/>
      <point x="6042" y="274"/>
      <point x="5520.5" y="-40.5"/>
      <point x="5140" y="-40.5" type="curve" smooth="yes"/>
      <point x="4677.5" y="-40.5"/>
      <point x="4239.5" y="274"/>
    </contour>
    <contour>
      <point x="2867.5" y="860" type="curve" smooth="yes"/>
      <point x="2867.5" y="304"/>
      <point x="2933" y="-19"/>
      <point x="3133.5" y="-19" type="curve" smooth="yes"/>
      <point x="3334" y="-19"/>
      <point x="3400" y="304"/>
      <point x="3400" y="860" type="curve" smooth="yes"/>
      <point x="3400" y="1416"/>
      <point x="3334" y="1741"/>
      <point x="3133.5" y="1741" type="curve" smooth="yes"/>
      <point x="2933" y="1741"/>
      <point x="2867.5" y="1416"/>
    </contour>
    <contour>
      <point x="2232" y="860" type="curve" smooth="yes"/>
      <point x="2232" y="1446"/>
      <point x="2671" y="1761.5"/>
      <point x="3133.5" y="1761.5" type="curve" smooth="yes"/>
      <point x="3596" y="1761.5"/>
      <point x="4034.5" y="1446"/>
      <point x="4034.5" y="860" type="curve" smooth="yes"/>
      <point x="4034.5" y="274"/>
      <point x="3514" y="-40.5"/>
      <point x="3133.5" y="-40.5" type="curve" smooth="yes"/>
      <point x="2671" y="-40.5"/>
      <point x="2232" y="274"/>
    </contour>
    <contour>
      <point x="3151.5" y="3072" type="line"/>
      <point x="3177" y="3072" type="line"/>
      <point x="1026.5" y="0" type="line"/>
      <point x="1001" y="0" type="line"/>
    </contour>
    <contour>
      <point x="778" y="2212" type="curve" smooth="yes"/>
      <point x="778" y="1656"/>
      <point x="844" y="1331"/>
      <point x="1044.5" y="1331" type="curve" smooth="yes"/>
      <point x="1245" y="1331"/>
      <point x="1310.5" y="1656"/>
      <point x="1310.5" y="2212" type="curve" smooth="yes"/>
      <point x="1310.5" y="2768"/>
      <point x="1245" y="3091"/>
      <point x="1044.5" y="3091" type="curve" smooth="yes"/>
      <point x="844" y="3091"/>
      <point x="778" y="2768"/>
    </contour>
    <contour>
      <point x="143.5" y="2212" type="curve" smooth="yes"/>
      <point x="143.5" y="2798"/>
      <point x="582" y="3112.5"/>
      <point x="1044.5" y="3112.5" type="curve" smooth="yes"/>
      <point x="1507" y="3112.5"/>
      <point x="1946" y="2798"/>
      <point x="1946" y="2212" type="curve" smooth="yes"/>
      <point x="1946" y="1626"/>
      <point x="1425" y="1310.5"/>
      <point x="1044.5" y="1310.5" type="curve" smooth="yes"/>
      <point x="582" y="1310.5"/>
      <point x="143.5" y="1626"/>
    </contour>
  </outline>
</glyph>
<glyph name="uni203D" format="2">
  <advance width="2702"/>
  <unicode hex="203D"/>
  <outline>
    <contour>
      <point x="1662" y="2126" type="curve" smooth="yes"/>
      <point x="1616" y="1732"/>
      <point x="1332" y="1281"/>
      <point x="1332" y="995" type="curve"/>
      <point x="1307" y="995" type="line"/>
      <point x="1307" y="1281"/>
      <point x="1103" y="1732"/>
      <point x="1057" y="2126" type="curve" smooth="yes"/>
      <point x="1053" y="2154"/>
      <point x="1053" y="2180"/>
      <point x="1053" y="2204" type="curve" smooth="yes"/>
      <point x="1053" y="2318"/>
      <point x="1126" y="2510"/>
      <point x="1360" y="2510" type="curve" smooth="yes"/>
      <point x="1594" y="2510"/>
      <point x="1666" y="2318"/>
      <point x="1666" y="2204" type="curve" smooth="yes"/>
      <point x="1666" y="2180"/>
      <point x="1666" y="2154"/>
    </contour>
    <contour>
      <point x="266" y="2277" type="curve" smooth="yes"/>
      <point x="266" y="2653"/>
      <point x="671" y="3112"/>
      <point x="1396" y="3112" type="curve" smooth="yes"/>
      <point x="2014" y="3112"/>
      <point x="2540" y="2805"/>
      <point x="2540" y="2252" type="curve" smooth="yes"/>
      <point x="2540" y="1719"/>
      <point x="1917" y="1372"/>
      <point x="1380" y="1372" type="curve"/>
      <point x="1380" y="1392" type="line"/>
      <point x="1716" y="1408"/>
      <point x="2003" y="1864"/>
      <point x="2003" y="2294" type="curve" smooth="yes"/>
      <point x="2003" y="2680"/>
      <point x="1748" y="3060"/>
      <point x="1302" y="3060" type="curve" smooth="yes"/>
      <point x="720" y="3060"/>
      <point x="361" y="2672"/>
      <point x="324" y="2386" type="curve"/>
      <point x="348" y="2468"/>
      <point x="450" y="2560"/>
      <point x="602" y="2560" type="curve" smooth="yes"/>
      <point x="782" y="2560"/>
      <point x="897" y="2396"/>
      <point x="897" y="2252" type="curve" smooth="yes"/>
      <point x="897" y="2027"/>
      <point x="725" y="1921"/>
      <point x="582" y="1921" type="curve" smooth="yes"/>
      <point x="418" y="1921"/>
      <point x="266" y="2048"/>
    </contour>
    <component base="period" xOffset="775"/>
  </outline>
</glyph>
<glyph name="Euro" format="2">
  <advance width="2969"/>
  <unicode hex="20AC"/>
  <outline>
    <contour>
      <point x="2699" y="2662" type="curve"/>
      <point x="2623" y="2838"/>
      <point x="2347" y="3078"/>
      <point x="1962" y="3078" type="curve" smooth="yes"/>
      <point x="1372" y="3078"/>
      <point x="1188" y="2330"/>
      <point x="1188" y="1536" type="curve" smooth="yes"/>
      <point x="1188" y="660"/>
      <point x="1417" y="10"/>
      <point x="1884" y="10" type="curve" smooth="yes"/>
      <point x="2290" y="10"/>
      <point x="2609" y="348"/>
      <point x="2711" y="730" type="curve"/>
      <point x="2736" y="730" type="line"/>
      <point x="2630" y="332"/>
      <point x="2311" y="-40"/>
      <point x="1774" y="-40" type="curve" smooth="yes"/>
      <point x="1053" y="-40"/>
      <point x="451" y="594"/>
      <point x="451" y="1536" type="curve" smooth="yes"/>
      <point x="451" y="2396"/>
      <point x="996" y="3112"/>
      <point x="1880" y="3112" type="curve" smooth="yes"/>
      <point x="2441" y="3112"/>
      <point x="2786" y="2756"/>
      <point x="2786" y="2482" type="curve" smooth="yes"/>
      <point x="2786" y="2253"/>
      <point x="2634" y="2126"/>
      <point x="2450" y="2126" type="curve" smooth="yes"/>
      <point x="2286" y="2126"/>
      <point x="2114" y="2233"/>
      <point x="2114" y="2458" type="curve" smooth="yes"/>
      <point x="2114" y="2662"/>
      <point x="2270" y="2785"/>
      <point x="2450" y="2785" type="curve" smooth="yes"/>
      <point x="2574" y="2785"/>
      <point x="2668" y="2710"/>
    </contour>
    <component base="equal" xOffset="-123" yOffset="-287"/>
  </outline>
</glyph>
<glyph name="uni2116" format="2">
  <advance width="4693"/>
  <unicode hex="2116"/>
  <outline>
    <contour>
      <point x="3542" y="2334" type="curve" smooth="yes"/>
      <point x="3542" y="1868"/>
      <point x="3625" y="1582"/>
      <point x="3826" y="1582" type="curve" smooth="yes"/>
      <point x="4027" y="1582"/>
      <point x="4108" y="1868"/>
      <point x="4108" y="2334" type="curve" smooth="yes"/>
      <point x="4108" y="2800"/>
      <point x="4027" y="3088"/>
      <point x="3826" y="3088" type="curve" smooth="yes"/>
      <point x="3625" y="3088"/>
      <point x="3542" y="2800"/>
    </contour>
    <contour>
      <point x="3072" y="2334" type="curve" smooth="yes"/>
      <point x="3072" y="2846"/>
      <point x="3392" y="3112"/>
      <point x="3826" y="3112" type="curve" smooth="yes"/>
      <point x="4260" y="3112"/>
      <point x="4580" y="2846"/>
      <point x="4580" y="2334" type="curve" smooth="yes"/>
      <point x="4580" y="1822"/>
      <point x="4260" y="1556"/>
      <point x="3826" y="1556" type="curve" smooth="yes"/>
      <point x="3392" y="1556"/>
      <point x="3072" y="1822"/>
    </contour>
    <component base="hyphen" xOffset="3089" yOffset="164"/>
    <component base="N"/>
  </outline>
</glyph>
<glyph name="uniFB00" format="2">
  <advance width="5600"/>
  <unicode hex="FB00"/>
  <outline>
    <contour>
      <point x="96" y="48" type="line"/>
      <point x="5344" y="48" type="line"/>
      <point x="5344" y="0" type="line"/>
      <point x="96" y="0" type="line"/>
    </contour>
    <contour>
      <point x="96" y="3680" type="line"/>
      <point x="5504" y="3680" type="line"/>
      <point x="5504" y="3632" type="line"/>
      <point x="96" y="3632" type="line"/>
    </contour>
    <contour>
      <point x="3936" y="4960" type="curve"/>
      <point x="3872" y="5264"/>
      <point x="3416" y="5632"/>
      <point x="2912" y="5632" type="curve" smooth="yes"/>
      <point x="2280" y="5632"/>
      <point x="1904" y="4936"/>
      <point x="1904" y="3920" type="curve" smooth="yes"/>
      <point x="1904" y="0" type="line"/>
      <point x="816" y="0" type="line"/>
      <point x="816" y="3696" type="line" smooth="yes"/>
      <point x="816" y="4824"/>
      <point x="1680" y="5680"/>
      <point x="2880" y="5680" type="curve" smooth="yes"/>
      <point x="3568" y="5680"/>
      <point x="4064" y="5192"/>
      <point x="4064" y="4728" type="curve" smooth="yes"/>
      <point x="4064" y="4320"/>
      <point x="3800" y="4072"/>
      <point x="3440" y="4072" type="curve" smooth="yes"/>
      <point x="3120" y="4072"/>
      <point x="2800" y="4272"/>
      <point x="2800" y="4672" type="curve" smooth="yes"/>
      <point x="2800" y="5072"/>
      <point x="3072" y="5280"/>
      <point x="3408" y="5280" type="curve" smooth="yes"/>
      <point x="3680" y="5280"/>
      <point x="3904" y="5040"/>
    </contour>
    <contour>
      <point x="6240" y="5392" type="curve"/>
      <point x="6176" y="5680"/>
      <point x="5856" y="6032"/>
      <point x="5296" y="6032" type="curve" smooth="yes"/>
      <point x="4656" y="6032"/>
      <point x="4400" y="5336"/>
      <point x="4400" y="4320" type="curve" smooth="yes"/>
      <point x="4400" y="0" type="line"/>
      <point x="3320" y="0" type="line"/>
      <point x="3320" y="4096" type="line" smooth="yes"/>
      <point x="3320" y="5224"/>
      <point x="4096" y="6080"/>
      <point x="5256" y="6080" type="curve" smooth="yes"/>
      <point x="5944" y="6080"/>
      <point x="6360" y="5624"/>
      <point x="6360" y="5168" type="curve" smooth="yes"/>
      <point x="6360" y="4760"/>
      <point x="6104" y="4512"/>
      <point x="5744" y="4512" type="curve" smooth="yes"/>
      <point x="5424" y="4512"/>
      <point x="5096" y="4704"/>
      <point x="5096" y="5104" type="curve" smooth="yes"/>
      <point x="5096" y="5504"/>
      <point x="5392" y="5728"/>
      <point x="5728" y="5728" type="curve" smooth="yes"/>
      <point x="5968" y="5728"/>
      <point x="6176" y="5568"/>
    </contour>
  </outline>
</glyph>
<glyph name="uniFB01" format="2">
  <advance width="2569"/>
  <unicode hex="FB01"/>
  <outline>
    <contour>
      <point x="420" y="2098" type="line" smooth="yes"/>
      <point x="420" y="2696"/>
      <point x="837" y="3112"/>
      <point x="1554" y="3112" type="curve" smooth="yes"/>
      <point x="1988" y="3112"/>
      <point x="2222" y="2879"/>
      <point x="2222" y="2625" type="curve" smooth="yes"/>
      <point x="2222" y="2416"/>
      <point x="2091" y="2290"/>
      <point x="1907" y="2290" type="curve" smooth="yes"/>
      <point x="1741" y="2290"/>
      <point x="1576" y="2397"/>
      <point x="1576" y="2593" type="curve" smooth="yes"/>
      <point x="1576" y="2792"/>
      <point x="1724" y="2906"/>
      <point x="1898" y="2906" type="curve" smooth="yes"/>
      <point x="2027" y="2906"/>
      <point x="2129" y="2835"/>
      <point x="2160" y="2728" type="curve"/>
      <point x="2123" y="2929"/>
      <point x="1910" y="3088"/>
      <point x="1554" y="3088" type="curve" smooth="yes"/>
      <point x="1108" y="3088"/>
      <point x="972" y="2732"/>
      <point x="972" y="2212" type="curve" smooth="yes"/>
      <point x="972" y="0" type="line"/>
      <point x="420" y="0" type="line"/>
    </contour>
    <contour>
      <point x="50" y="24" type="line"/>
      <point x="2499" y="24" type="line"/>
      <point x="2499" y="0" type="line"/>
      <point x="50" y="0" type="line"/>
    </contour>
    <contour>
      <point x="1638" y="1860" type="line"/>
      <point x="50" y="1860" type="line"/>
      <point x="50" y="1884" type="line"/>
      <point x="2212" y="1884" type="line"/>
      <point x="2212" y="0" type="line"/>
      <point x="1638" y="0" type="line"/>
    </contour>
  </outline>
</glyph>
<glyph name="uniFB02" format="2">
  <advance width="2754"/>
  <unicode hex="FB02"/>
  <outline>
    <contour>
      <point x="50" y="24" type="line"/>
      <point x="2714" y="24" type="line"/>
      <point x="2714" y="0" type="line"/>
      <point x="50" y="0" type="line"/>
    </contour>
    <contour>
      <point x="50" y="1884" type="line"/>
      <point x="1536" y="1884" type="line"/>
      <point x="1536" y="1860" type="line"/>
      <point x="50" y="1860" type="line"/>
    </contour>
    <contour>
      <point x="1812" y="2990" type="line"/>
      <point x="2386" y="3154" type="line"/>
      <point x="2386" y="0" type="line"/>
      <point x="1812" y="0" type="line"/>
    </contour>
    <contour>
      <point x="1944" y="2730" type="curve"/>
      <point x="1920" y="2894"/>
      <point x="1744" y="3086"/>
      <point x="1452" y="3086" type="curve" smooth="yes"/>
      <point x="1092" y="3086"/>
      <point x="972" y="2732"/>
      <point x="972" y="2212" type="curve" smooth="yes"/>
      <point x="972" y="0" type="line"/>
      <point x="420" y="0" type="line"/>
      <point x="420" y="2098" type="line" smooth="yes"/>
      <point x="420" y="2676"/>
      <point x="838" y="3112"/>
      <point x="1432" y="3112" type="curve" smooth="yes"/>
      <point x="1784" y="3112"/>
      <point x="1997" y="2879"/>
      <point x="1997" y="2625" type="curve" smooth="yes"/>
      <point x="1997" y="2416"/>
      <point x="1865" y="2290"/>
      <point x="1681" y="2290" type="curve" smooth="yes"/>
      <point x="1517" y="2290"/>
      <point x="1350" y="2388"/>
      <point x="1350" y="2593" type="curve" smooth="yes"/>
      <point x="1350" y="2798"/>
      <point x="1490" y="2910"/>
      <point x="1670" y="2910" type="curve" smooth="yes"/>
      <point x="1856" y="2910"/>
      <point x="1940" y="2730"/>
    </contour>
  </outline>
</glyph>
<glyph name="uniFB03" format="2">
  <advance width="3808"/>
  <unicode hex="FB03"/>
  <outline>
    <contour>
      <point x="1658" y="2098" type="line" smooth="yes"/>
      <point x="1658" y="2696"/>
      <point x="2077" y="3112"/>
      <point x="2794" y="3112" type="curve" smooth="yes"/>
      <point x="3228" y="3112"/>
      <point x="3462" y="2879"/>
      <point x="3462" y="2625" type="curve" smooth="yes"/>
      <point x="3462" y="2416"/>
      <point x="3330" y="2290"/>
      <point x="3146" y="2290" type="curve" smooth="yes"/>
      <point x="2980" y="2290"/>
      <point x="2814" y="2397"/>
      <point x="2814" y="2593" type="curve" smooth="yes"/>
      <point x="2814" y="2792"/>
      <point x="2960" y="2906"/>
      <point x="3134" y="2906" type="curve" smooth="yes"/>
      <point x="3285" y="2906"/>
      <point x="3378" y="2824"/>
      <point x="3400" y="2728" type="curve"/>
      <point x="3361" y="2927"/>
      <point x="3152" y="3086"/>
      <point x="2794" y="3086" type="curve" smooth="yes"/>
      <point x="2348" y="3086"/>
      <point x="2212" y="2732"/>
      <point x="2212" y="2212" type="curve" smooth="yes"/>
      <point x="2212" y="0" type="line"/>
      <point x="1658" y="0" type="line"/>
    </contour>
    <contour>
      <point x="50" y="24" type="line"/>
      <point x="3738" y="24" type="line"/>
      <point x="3738" y="0" type="line"/>
      <point x="50" y="0" type="line"/>
    </contour>
    <contour>
      <point x="420" y="1892" type="line" smooth="yes"/>
      <point x="420" y="2468"/>
      <point x="858" y="2908"/>
      <point x="1472" y="2908" type="curve" smooth="yes"/>
      <point x="1824" y="2908"/>
      <point x="2079" y="2659"/>
      <point x="2079" y="2421" type="curve" smooth="yes"/>
      <point x="2079" y="2212"/>
      <point x="1947" y="2085"/>
      <point x="1763" y="2085" type="curve" smooth="yes"/>
      <point x="1599" y="2085"/>
      <point x="1432" y="2187"/>
      <point x="1432" y="2390" type="curve" smooth="yes"/>
      <point x="1432" y="2593"/>
      <point x="1569" y="2705"/>
      <point x="1743" y="2705" type="curve" smooth="yes"/>
      <point x="1882" y="2705"/>
      <point x="1980" y="2617"/>
      <point x="1994" y="2574" type="curve"/>
      <point x="1945" y="2718"/>
      <point x="1756" y="2880"/>
      <point x="1494" y="2880" type="curve" smooth="yes"/>
      <point x="1170" y="2880"/>
      <point x="972" y="2528"/>
      <point x="972" y="2008" type="curve" smooth="yes"/>
      <point x="972" y="0" type="line"/>
      <point x="420" y="0" type="line"/>
    </contour>
    <contour>
      <point x="2878" y="1860" type="line"/>
      <point x="50" y="1860" type="line"/>
      <point x="50" y="1884" type="line"/>
      <point x="3451" y="1884" type="line"/>
      <point x="3451" y="0" type="line"/>
      <point x="2878" y="0" type="line"/>
    </contour>
  </outline>
</glyph>
<glyph name="uniFB04" format="2">
  <advance width="4100"/>
  <unicode hex="FB04"/>
  <outline>
    <contour>
      <point x="70.5" y="25" type="line"/>
      <point x="4016" y="25" type="line"/>
      <point x="4016" y="0" type="line"/>
      <point x="70.5" y="0" type="line"/>
    </contour>
    <contour>
      <point x="70.5" y="1884" type="line"/>
      <point x="2835.5" y="1884" type="line"/>
      <point x="2835.5" y="1859" type="line"/>
      <point x="70.5" y="1859" type="line"/>
    </contour>
    <contour>
      <point x="3109.5" y="2990" type="line"/>
      <point x="3682.5" y="3154" type="line"/>
      <point x="3682.5" y="0" type="line"/>
      <point x="3109.5" y="0" type="line"/>
    </contour>
    <contour>
      <point x="2013" y="2575" type="curve"/>
      <point x="1962" y="2716.5"/>
      <point x="1771" y="2880"/>
      <point x="1510.5" y="2880" type="curve" smooth="yes"/>
      <point x="1181" y="2880"/>
      <point x="991.5" y="2527"/>
      <point x="991.5" y="2007" type="curve" smooth="yes"/>
      <point x="991.5" y="0" type="line"/>
      <point x="439.5" y="0" type="line"/>
      <point x="439.5" y="1892" type="line" smooth="yes"/>
      <point x="439.5" y="2467.5"/>
      <point x="874.5" y="2908"/>
      <point x="1490" y="2908" type="curve" smooth="yes"/>
      <point x="1844" y="2908"/>
      <point x="2097.5" y="2655.5"/>
      <point x="2097.5" y="2422" type="curve" smooth="yes"/>
      <point x="2097.5" y="2213"/>
      <point x="1966" y="2086"/>
      <point x="1781.5" y="2086" type="curve" smooth="yes"/>
      <point x="1618" y="2086"/>
      <point x="1449.5" y="2191.5"/>
      <point x="1449.5" y="2393" type="curve" smooth="yes"/>
      <point x="1449.5" y="2593.5"/>
      <point x="1586.5" y="2706"/>
      <point x="1755.5" y="2706" type="curve" smooth="yes"/>
      <point x="1886" y="2706"/>
      <point x="1993" y="2622"/>
    </contour>
    <contour>
      <point x="3232.5" y="2749.5" type="curve"/>
      <point x="3196" y="2930.5"/>
      <point x="3000" y="3087"/>
      <point x="2748.5" y="3087" type="curve" smooth="yes"/>
      <point x="2384.5" y="3087"/>
      <point x="2271.5" y="2732"/>
      <point x="2271.5" y="2212" type="curve" smooth="yes"/>
      <point x="2271.5" y="0" type="line"/>
      <point x="1718.5" y="0" type="line"/>
      <point x="1718.5" y="2097" type="line" smooth="yes"/>
      <point x="1718.5" y="2674.5"/>
      <point x="2135" y="3113"/>
      <point x="2728.5" y="3113" type="curve" smooth="yes"/>
      <point x="3081" y="3113"/>
      <point x="3293.5" y="2882"/>
      <point x="3293.5" y="2630.5" type="curve" smooth="yes"/>
      <point x="3293.5" y="2421.5"/>
      <point x="3162.5" y="2294.5"/>
      <point x="2978" y="2294.5" type="curve" smooth="yes"/>
      <point x="2814.5" y="2294.5"/>
      <point x="2645.5" y="2393"/>
      <point x="2645.5" y="2598" type="curve" smooth="yes"/>
      <point x="2645.5" y="2802"/>
      <point x="2783.5" y="2914"/>
      <point x="2960.5" y="2914" type="curve" smooth="yes"/>
      <point x="3142" y="2914"/>
      <point x="3205.5" y="2794.5"/>
    </contour>
  </outline>
</glyph>
<glyph name="J.alt" format="2">
  <advance width="2593"/>
  <outline>
    <contour>
      <point x="977" y="3072" type="line"/>
      <point x="2533" y="3072" type="line"/>
      <point x="2533" y="3047" type="line"/>
      <point x="977" y="3047" type="line"/>
    </contour>
    <contour>
      <point x="1489" y="3072" type="line"/>
      <point x="2124" y="3072" type="line"/>
      <point x="2124" y="921.5" type="line"/>
      <point x="2001" y="348"/>
      <point x="1656.5" y="-82"/>
      <point x="936" y="-82" type="curve" smooth="yes"/>
      <point x="395.5" y="-82"/>
      <point x="71.5" y="307"/>
      <point x="71.5" y="676" type="curve" smooth="yes"/>
      <point x="71.5" y="991.5"/>
      <point x="284.5" y="1167.5"/>
      <point x="510" y="1167.5" type="curve" smooth="yes"/>
      <point x="714.5" y="1167.5"/>
      <point x="883" y="1032"/>
      <point x="883" y="792.5" type="curve" smooth="yes"/>
      <point x="883" y="588"/>
      <point x="712" y="420"/>
      <point x="493" y="420" type="curve" smooth="yes"/>
      <point x="305.5" y="420"/>
      <point x="154" y="509.5"/>
      <point x="105.5" y="622" type="curve"/>
      <point x="141" y="256"/>
      <point x="472" y="-49"/>
      <point x="895" y="-49" type="curve" smooth="yes"/>
      <point x="1329.5" y="-49"/>
      <point x="1489" y="328"/>
      <point x="1489" y="901" type="curve" smooth="yes"/>
    </contour>
  </outline>
</glyph>
<glyph name="R.alt" format="2">
  <advance width="2979"/>
  <outline>
    <contour>
      <point x="1505" y="1568" type="curve" smooth="yes"/>
      <point x="808" y="1568" type="line"/>
      <point x="808" y="1590" type="line"/>
      <point x="1403" y="1590" type="line" smooth="yes"/>
      <point x="1797" y="1590"/>
      <point x="1997" y="1827"/>
      <point x="1997" y="2314" type="curve" smooth="yes"/>
      <point x="1997" y="2801"/>
      <point x="1797" y="3048"/>
      <point x="1403" y="3048" type="curve" smooth="yes"/>
      <point x="72" y="3048" type="line"/>
      <point x="72" y="3072" type="line"/>
      <point x="1505" y="3072" type="line" smooth="yes"/>
      <point x="2185" y="3072"/>
      <point x="2652" y="2846"/>
      <point x="2652" y="2314" type="curve" smooth="yes"/>
      <point x="2652" y="1782"/>
      <point x="2225" y="1568"/>
    </contour>
    <contour>
      <point x="72" y="24" type="line"/>
      <point x="1526" y="24" type="line"/>
      <point x="1526" y="0" type="line"/>
      <point x="72" y="0" type="line"/>
    </contour>
    <contour>
      <point x="481" y="3072" type="line"/>
      <point x="1116" y="3072" type="line"/>
      <point x="1116" y="0" type="line"/>
      <point x="481" y="0" type="line"/>
    </contour>
    <contour>
      <point x="2939" y="0" type="line"/>
      <point x="2873" y="0"/>
      <point x="2636" y="0"/>
      <point x="2488" y="0" type="curve" smooth="yes"/>
      <point x="1411" y="0"/>
      <point x="2390" y="1564"/>
      <point x="1382" y="1564" type="curve" smooth="yes"/>
      <point x="808" y="1564" type="line"/>
      <point x="808" y="1576" type="line"/>
      <point x="1710" y="1576" type="line" smooth="yes"/>
      <point x="3094" y="1576"/>
      <point x="2271" y="24"/>
      <point x="2795" y="24" type="curve" smooth="yes"/>
      <point x="2881" y="24"/>
      <point x="2881" y="24"/>
      <point x="2939" y="24" type="curve"/>
    </contour>
  </outline>
</glyph>
<glyph name="fj.lig" format="2">
  <advance width="4888"/>
  <outline>
    <contour>
      <point x="96" y="48" type="line"/>
      <point x="2640" y="48" type="line"/>
      <point x="2640" y="0" type="line"/>
      <point x="96" y="0" type="line"/>
    </contour>
    <contour>
      <point x="4280" y="-96" type="line" smooth="yes"/>
      <point x="4280" y="-1144"/>
      <point x="3664" y="-2080"/>
      <point x="2544" y="-2080" type="curve" smooth="yes"/>
      <point x="1816" y="-2080"/>
      <point x="1320" y="-1688"/>
      <point x="1320" y="-1152" type="curve" smooth="yes"/>
      <point x="1320" y="-744"/>
      <point x="1616" y="-472"/>
      <point x="1976" y="-472" type="curve" smooth="yes"/>
      <point x="2296" y="-472"/>
      <point x="2624" y="-664"/>
      <point x="2624" y="-1064" type="curve" smooth="yes"/>
      <point x="2624" y="-1464"/>
      <point x="2320" y="-1672"/>
      <point x="1952" y="-1672" type="curve" smooth="yes"/>
      <point x="1696" y="-1672"/>
      <point x="1512" y="-1512"/>
      <point x="1448" y="-1328" type="curve"/>
      <point x="1496" y="-1712"/>
      <point x="1920" y="-2016"/>
      <point x="2464" y="-2016" type="curve" smooth="yes"/>
      <point x="3304" y="-2016"/>
      <point x="3160" y="-856"/>
      <point x="3160" y="160" type="curve" smooth="yes"/>
      <point x="3160" y="3632" type="line"/>
      <point x="96" y="3632" type="line"/>
      <point x="96" y="3680" type="line"/>
      <point x="4280" y="3680" type="line"/>
    </contour>
    <contour>
      <point x="4144" y="5424" type="curve"/>
      <point x="4048" y="5712"/>
      <point x="3704" y="6032"/>
      <point x="2992" y="6032" type="curve" smooth="yes"/>
      <point x="2152" y="6032"/>
      <point x="1904" y="5336"/>
      <point x="1904" y="4320" type="curve" smooth="yes"/>
      <point x="1904" y="0" type="line"/>
      <point x="816" y="0" type="line"/>
      <point x="816" y="4096" type="line" smooth="yes"/>
      <point x="816" y="5264"/>
      <point x="1592" y="6080"/>
      <point x="2992" y="6080" type="curve" smooth="yes"/>
      <point x="3840" y="6080"/>
      <point x="4304" y="5624"/>
      <point x="4304" y="5128" type="curve" smooth="yes"/>
      <point x="4304" y="4720"/>
      <point x="4040" y="4472"/>
      <point x="3680" y="4472" type="curve" smooth="yes"/>
      <point x="3360" y="4472"/>
      <point x="3040" y="4664"/>
      <point x="3040" y="5064" type="curve" smooth="yes"/>
      <point x="3040" y="5464"/>
      <point x="3328" y="5680"/>
      <point x="3664" y="5680" type="curve" smooth="yes"/>
      <point x="3896" y="5680"/>
      <point x="4072" y="5552"/>
    </contour>
  </outline>
</glyph>
<glyph name="four.alt" format="2">
  <advance width="2682"/>
  <outline>
    <contour>
      <point x="2416" y="24" type="line"/>
      <point x="2416" y="0" type="line"/>
      <point x="1086" y="0" type="line"/>
      <point x="1086" y="24" type="line"/>
    </contour>
    <contour>
      <point x="2110" y="2040" type="curve"/>
      <point x="2110" y="-4" type="line"/>
      <point x="1474" y="-4" type="line"/>
      <point x="1474" y="1856" type="line"/>
      <point x="1658" y="1856"/>
      <point x="1987" y="1958"/>
    </contour>
    <contour>
      <point x="104" y="797" type="curve"/>
      <point x="2478" y="797" type="line"/>
      <point x="2478" y="772" type="line"/>
      <point x="62" y="772" type="line"/>
      <point x="636" y="1592"/>
      <point x="1270" y="2458"/>
      <point x="1352" y="3072" type="curve"/>
      <point x="2040" y="3072" type="line"/>
      <point x="1962" y="2376"/>
      <point x="682" y="1591"/>
    </contour>
  </outline>
</glyph>
